<?xml version="1.0" encoding="utf-8"?>
<!-- Generator: Adobe Illustrator 13.0.1, SVG Export Plug-In . SVG Version: 6.00 Build 14948)  -->
<!DOCTYPE svg PUBLIC "-//W3C//DTD SVG 1.1//EN" "http://www.w3.org/Graphics/SVG/1.1/DTD/svg11.dtd">
<svg version="1.1" id="图层_1" xmlns="http://www.w3.org/2000/svg" xmlns:xlink="http://www.w3.org/1999/xlink" x="0px" y="0px"
	 width="178.209px" height="200px" viewBox="0 0 178.209 200" enable-background="new 0 0 178.209 200" xml:space="preserve">
	 
	 <rect id="bubblerect" stroke-width="0" x="32.458" y="52.084"  fill="none" stroke="#000000" width="116.666" height="96.667"/>
	 
<g>
	<g>
		<path fill="#FFFFFF" d="M164.8,67.7c-0.7-2.8-1.5-5.5-2.3-8c-0.3-1-0.9-1.7-1.7-2.1c-0.9-0.5-1.9-0.6-2.8-0.3
			c-1,0.4-1.7,0.9-2.2,1.8c-0.4,0.8-0.5,1.7-0.2,2.7c0.7,2.4,1.5,4.9,2.1,7.5c0.1,0.6,0.4,2.6,0.9,6c0.1,1,0.5,1.7,1.2,2.3
			c0.6,0.6,1.4,0.9,2.3,0.9c0.2,0,0.3,0,0.5,0c1-0.2,1.8-0.7,2.4-1.4c0.6-0.8,0.8-1.7,0.7-2.7c-0.3-2-0.4-3.6-0.6-4.7
			c-0.2-1.1-0.3-1.6-0.3-1.7v-0.2V67.7z"/>
		<path fill="#FFFFFF" d="M165.9,86.5c-0.7-0.6-1.6-0.8-2.6-0.8c-1,0.1-1.8,0.5-2.5,1.2c-0.6,0.8-0.9,1.6-0.8,2.7
			c0.3,4.3,0.7,9.1,0.8,14.4c0.1,1,0.5,1.7,1.1,2.4c0.7,0.6,1.5,1,2.5,1.1c0.1,0,0.2,0,0.2,0c1-0.1,1.8-0.5,2.5-1.2
			c0.7-0.7,1-1.6,1-2.6c-0.2-5.4-0.5-10.2-0.9-14.7C167.1,88,166.7,87.2,165.9,86.5z"/>
		<path fill="#FFFFFF" d="M164.7,114.7c-1.1,0-1.9,0.3-2.6,1c-0.7,0.6-1.1,1.5-1.2,2.5c0,4.8-0.2,9.5-0.6,14.3
			c-0.1,1,0.1,1.9,0.8,2.7c0.7,0.7,1.5,1.1,2.5,1.2c0.1,0,0.2,0,0.2,0c1,0,1.9-0.3,2.5-0.9c0.7-0.7,1.1-1.5,1.2-2.4
			c0.4-4.9,0.7-9.9,0.7-14.8c0-1-0.4-1.8-1-2.5C166.6,115.1,165.7,114.7,164.7,114.7z"/>
		<path fill="#FFFFFF" d="M165.6,141c-0.6-0.7-1.4-1.2-2.4-1.4c-1-0.1-1.9,0.1-2.7,0.7c-0.7,0.6-1.2,1.3-1.4,2.4
			c-0.3,2.1-0.8,4.3-1.3,6.7s-1,4.8-1.5,7.3c-0.1,1.1,0,2,0.6,2.8c0.5,0.7,1.3,1.2,2.3,1.5c0.2,0,0.5,0,0.7,0c0.9,0,1.7-0.2,2.3-0.8
			c0.6-0.5,1.1-1.2,1.2-2.1c0.5-2.4,1-4.8,1.5-7.2s1-4.8,1.4-7.2C166.4,142.7,166.2,141.8,165.6,141z"/>
		<path fill="#FFFFFF" d="M165.7,183.4c-1.2-1.8-2.1-3.5-2.6-5.5c-0.6-2-0.9-4-1-6.2c-0.1-1.1-0.5-1.9-1.2-2.6
			c-0.7-0.6-1.6-0.9-2.6-0.9s-1.9,0.4-2.5,1.2c-0.6,0.7-1,1.5-1,2.6c0.1,2.7,0.5,5.4,1.3,8c0.7,2.6,2,5.1,3.7,7.6
			c0.4,0.5,0.8,0.8,1.4,1.1c0.5,0.2,1,0.4,1.6,0.4c0.7,0,1.5-0.3,2.1-0.7c0.8-0.7,1.3-1.4,1.4-2.3
			C166.5,185.1,166.3,184.2,165.7,183.4z"/>
		<path fill="#FFFFFF" d="M170.7,192.1c-0.9,0.2-1.9,0.3-2.9,0.4c-1,0-2,0-3,0.1s-1.9,0.4-2.5,1.1c-0.6,0.8-1,1.6-1,2.7
			c0.1,1,0.5,1.8,1.1,2.5c0.8,0.6,1.6,0.9,2.5,1c0.1,0,0.2,0,0.2,0c1.3-0.2,2.7-0.2,4-0.4c1.2-0.2,2.6-0.3,3.8-0.2
			c1.4,0,2.5-0.4,3.5-1.4c1-0.9,1.6-1.9,1.8-3.1c0.1-1.1-0.6-2.1-2-2.9c-0.9-0.3-1.9-0.5-2.8-0.3
			C172.5,191.7,171.6,191.8,170.7,192.1z"/>
		<path fill="#FFFFFF" d="M141.1,23.5c0-0.9-0.4-1.8-1.1-2.6c-3.8-3.7-7.8-6.8-12-9.4c-0.9-0.5-1.8-0.7-2.7-0.4
			c-1,0.2-1.7,0.7-2.3,1.6c-0.5,0.9-0.7,1.7-0.4,2.7c0.2,0.9,0.7,1.8,1.6,2.3c3.7,2.2,7.2,5.1,10.7,8.5c0.8,0.6,1.6,1,2.5,1
			c1,0,1.9-0.4,2.7-1.1C140.8,25.3,141.1,24.4,141.1,23.5z"/>
		<path fill="#FFFFFF" d="M143.8,36.7c2.4,3.5,4.7,7.6,6.8,12c0.3,0.7,0.7,1.2,1.3,1.6c0.6,0.4,1.3,0.5,1.9,0.5
			c0.6,0,1.1-0.1,1.6-0.3c0.9-0.4,1.5-1.1,1.9-2.1c0.3-0.8,0.3-1.7-0.1-2.7c-2.3-4.9-4.8-9.2-7.4-13.1c-0.6-0.9-1.5-1.4-2.4-1.5
			c-1-0.2-1.8,0-2.7,0.6c-0.9,0.5-1.4,1.3-1.5,2.2C143,34.9,143.2,35.8,143.8,36.7z"/>
		<path fill="#FFFFFF" d="M111.8,11.7c0.5,0.1,0.9,0.2,1.3,0.2c0.7,0,1.4-0.2,2-0.6c0.7-0.5,1.1-1,1.4-1.7c0.3-1,0.3-2-0.2-2.9
			c-0.4-0.8-1-1.5-2-1.8c-5-1.7-9.9-3-14.7-3.7c-1.1-0.2-1.9,0-2.7,0.6c-0.8,0.5-1.3,1.4-1.4,2.4c-0.2,1,0,1.9,0.6,2.6
			c0.6,0.8,1.4,1.3,2.4,1.5C102.8,9,107.3,10.2,111.8,11.7z"/>
		<path fill="#FFFFFF" d="M84.5,7.2c1.1,0,2-0.4,2.7-1c0.6-0.7,1-1.5,1-2.6c0-1-0.4-1.9-1.1-2.5c-0.6-0.7-1.5-1-2.6-1.1
			c-2.8,0-5.5,0.1-8,0.3c-2.5,0.3-4.8,0.5-6.9,0.8c-1.1,0.1-1.8,0.6-2.4,1.5c-0.5,0.7-0.8,1.6-0.7,2.6c0.2,1,0.6,1.7,1.3,2.2
			c0.6,0.6,1.4,0.9,2.3,0.9c0.2,0,0.4,0,0.6,0c1.9-0.3,4-0.6,6.3-0.7C79.4,7.3,81.9,7.2,84.5,7.2z"/>
		<path fill="#FFFFFF" d="M54.9,4.4c-5.1,1.7-9.8,3.5-14,5.8c-0.9,0.5-1.5,1.2-1.8,2.1c-0.2,0.9-0.1,1.9,0.3,2.8
			c0.4,0.6,0.8,1.1,1.4,1.4c0.5,0.3,1.2,0.5,1.8,0.5c0.5,0.1,1.1-0.1,1.7-0.4c3.8-2,8.1-3.8,12.7-5.2c1-0.3,1.8-1,2.2-1.8
			c0.4-0.9,0.5-1.8,0.3-2.8c-0.4-0.9-1-1.6-1.9-2.1C56.8,4.2,55.9,4.2,54.9,4.4z"/>
		<path fill="#FFFFFF" d="M32.8,24.2c0.7-0.7,1.2-1.5,1.3-2.5c0.1-1-0.1-1.9-0.8-2.6c-0.7-0.9-1.5-1.3-2.4-1.4
			c-1-0.1-1.8,0.1-2.7,0.8c-4.1,3.4-7.7,7.1-10.7,10.8c-0.6,0.9-0.9,1.8-0.8,2.7c0.2,0.9,0.6,1.8,1.4,2.4c0.7,0.6,1.4,0.8,2.3,0.8
			c1,0,2-0.4,2.7-1.4C25.9,30.4,29.1,27.2,32.8,24.2z"/>
		<path fill="#FFFFFF" d="M11.4,40.3c-1,0.4-1.6,0.9-2.1,1.9c-2.5,4.9-4.3,9.5-5.7,14c-0.2,1-0.1,1.9,0.4,2.7
			c0.4,0.9,1.2,1.5,2.1,1.8c0.4,0.1,0.7,0.2,1.1,0.2c0.8-0.1,1.5-0.2,2.1-0.7c0.6-0.5,1.1-1.1,1.3-1.9c1.2-4.1,2.9-8.4,5.2-12.9
			c0.4-0.9,0.5-1.8,0.1-2.7c-0.2-1-0.8-1.6-1.7-2.1C13.2,40.1,12.3,40.1,11.4,40.3z"/>
		<path fill="#FFFFFF" d="M8.5,97.2c-0.8-0.5-1.7-0.7-2.7-0.5c-1,0.2-1.8,0.7-2.3,1.5C3,99,2.8,99.9,3,101c1,5,2.3,9.8,3.8,14.3
			c0.3,0.8,0.7,1.4,1.4,1.9c0.6,0.4,1.4,0.6,2.1,0.6c0.4,0,0.8-0.1,1.1-0.2c1-0.4,1.7-0.9,2.2-1.8c0.4-0.8,0.5-1.8,0.2-2.8
			c-1.5-4.3-2.7-8.8-3.7-13.6C9.8,98.4,9.3,97.7,8.5,97.2z"/>
		<path fill="#FFFFFF" d="M12.4,129.2c2.3,4.6,4.7,8.9,7.5,12.9c0.3,0.6,0.7,1,1.2,1.3c0.6,0.2,1.2,0.4,1.8,0.4c0.7,0,1.3-0.2,2-0.6
			c0.8-0.6,1.3-1.3,1.5-2.3c0.2-0.9,0-1.9-0.5-2.8c-2.5-3.7-4.8-7.8-6.9-12.1c-0.4-0.9-1.1-1.5-2.1-1.8c-0.9-0.4-1.8-0.3-2.7,0.1
			c-1,0.5-1.6,1.2-1.9,2.1C11.9,127.3,12,128.2,12.4,129.2z"/>
		<path fill="#FFFFFF" d="M29.3,149c-0.8,0.6-1.2,1.5-1.2,2.5c-0.1,0.9,0.2,1.7,0.8,2.5c3.4,3.9,7,7.4,10.7,10.5
			c0.8,0.6,1.5,0.9,2.4,0.9c1,0,2-0.4,2.8-1.3c0.6-0.7,0.8-1.6,0.8-2.6c-0.1-1-0.5-1.8-1.2-2.5c-3.5-3-6.9-6.2-10-9.8
			c-0.7-0.7-1.5-1.1-2.5-1.2C30.9,148,30.1,148.3,29.3,149z"/>
		<path fill="#FFFFFF" d="M50.5,168.5c-0.5,0.9-0.6,1.7-0.5,2.7c0.2,0.9,0.8,1.7,1.6,2.3c4.2,2.7,8.5,5.2,12.9,7.5
			c0.5,0.2,1,0.4,1.6,0.4c0.7,0,1.4-0.2,1.9-0.5c0.5-0.4,1-0.8,1.3-1.5c0.5-1,0.5-1.8,0.2-2.8c-0.2-0.9-0.8-1.6-1.7-2.1
			c-4.2-2.1-8.3-4.4-12.3-7c-0.8-0.6-1.7-0.8-2.6-0.5C51.9,167.1,51.1,167.6,50.5,168.5z"/>
		<path fill="#FFFFFF" d="M80.7,180.2c-0.9-0.3-1.9-0.3-2.8,0.1c-0.9,0.4-1.5,1.1-1.9,2c-0.3,0.9-0.3,1.9,0,2.8
			c0.5,0.8,1.1,1.5,2,1.9c4.8,1.8,9.5,3.4,14.1,4.7c0.4,0.1,0.7,0.1,1.1,0.1c0.8,0,1.5-0.2,2.1-0.6c0.7-0.5,1-1.1,1.3-2
			c0.2-1,0.2-1.9-0.3-2.7c-0.5-0.9-1.2-1.4-2.1-1.8C89.7,183.4,85.2,181.9,80.7,180.2z"/>
		<path fill="#FFFFFF" d="M106.5,195.2c5,1.1,9.8,1.9,14.6,2.5c0.1,0.1,0.2,0.1,0.5,0.1c0.9,0,1.7-0.3,2.3-0.9
			c0.7-0.5,1.1-1.3,1.2-2.2c0.2-1-0.1-2-0.7-2.7c-0.6-0.8-1.3-1.3-2.4-1.4c-4.5-0.7-9.2-1.5-14-2.5c-1-0.1-1.9,0-2.8,0.6
			c-0.8,0.5-1.3,1.3-1.5,2.3c-0.2,1,0,1.9,0.5,2.7C104.8,194.5,105.5,195,106.5,195.2z"/>
		<path fill="#FFFFFF" d="M133.6,193c-0.8,0.6-1.2,1.4-1.3,2.5c0,1,0.3,1.8,0.9,2.5c0.6,0.8,1.5,1.2,2.5,1.3
			c5.2,0.4,10.1,0.6,14.7,0.7l0,0c1.1-0.1,1.9-0.4,2.6-1.1c0.7-0.6,1.1-1.4,1.1-2.4c0-1.1-0.3-2-1-2.7c-0.7-0.6-1.5-1-2.5-1.1
			c-4.5,0-9.3-0.2-14.3-0.6C135.2,192,134.3,192.3,133.6,193z"/>
		<path fill="#FFFFFF" d="M1.9,68.6C1.1,69.2,0.7,70,0.6,71c-0.3,2.1-0.5,3.8-0.5,5.2c0,1.3-0.1,2.2-0.1,2.7c0,0.3,0,0.4,0,0.4v0.2
			c0.1,2.3,0.4,4.6,0.7,6.8c0.1,1,0.4,1.7,1.1,2.4c0.7,0.5,1.5,0.8,2.4,0.8c0.1,0,0.3,0,0.5,0c1-0.1,1.8-0.6,2.3-1.3
			c0.7-0.8,0.9-1.7,0.8-2.7c-0.2-2.1-0.4-4.3-0.5-6.5c0,0,0,0,0-0.1c0-0.3,0-1.1,0-2.3c0.1-1.3,0.2-2.8,0.5-4.7c0-1.1-0.2-2-0.8-2.7
			c-0.6-0.8-1.4-1.2-2.4-1.4C3.5,67.7,2.6,68,1.9,68.6z"/>
	</g>
</g>
</svg>
