<?xml version="1.0" encoding="utf-8"?>
<!-- Generator: Adobe Illustrator 13.0.1, SVG Export Plug-In . SVG Version: 6.00 Build 14948)  -->
<!DOCTYPE svg PUBLIC "-//W3C//DTD SVG 1.1//EN" "http://www.w3.org/Graphics/SVG/1.1/DTD/svg11.dtd">
<svg version="1.1" id="图层_1" xmlns="http://www.w3.org/2000/svg" xmlns:xlink="http://www.w3.org/1999/xlink" x="0px" y="0px"
	 width="166.573px" height="200.005px" viewBox="0 0 166.573 200.005" enable-background="new 0 0 166.573 200.005"
	 xml:space="preserve">
	 
	 <rect id="bubblerect" stroke-width="0" x="35.458" y="35"  fill="none" stroke="#000000" width="90" height="90"/>
	 
<g>
	<g>
		<path fill="#FFFFFF" d="M165.184,109.205c0.6-0.8,0.6-1.6,0.1-2.5c-0.5-0.8-1.5-1.6-2.9-2.4c-1.3-0.8-2.9-1.6-4.6-2.3
			c-1.6-0.7-3.3-1.3-4.9-1.9s-2.9-0.9-4-1.3c-1-0.3-1.5-0.5-1.6-0.5c-2-0.6-3.4-1.3-4-1.9c-0.6-0.7-0.8-1.2-0.5-1.8
			c0.2-0.6,0.5-1,1-1.4c0.5-0.3,0.7-0.5,0.8-0.5c2.6-1.1,4.3-2,5.3-2.9c0.9-0.9,1.4-1.6,1.2-2.2c-0.2-0.6-0.6-1.1-1.3-1.5
			c-0.7-0.4-1.4-0.7-2-0.9c-0.7-0.1-1-0.2-1.1-0.2c-2.4-2.2-4-4.1-4.9-5.8c-0.9-1.6-1.2-3-1-4.3c0.2-1.2,0.6-2.3,1.4-3.1
			c0.6-0.9,1.3-1.5,2-1.9c0.6-0.3,1-0.6,1-0.6c3.6-1.6,6.4-3.1,8.2-4.8c1.9-1.7,3.2-3,3.8-4.1c0.6-1.1,1-1.7,1-1.7
			c0.1-0.8-0.3-1.4-1.1-1.6c-0.8-0.4-1.8-0.5-3.1-0.4c-1.2,0-2.6,0-3.8,0.2c-1.3,0.3-2.4,0.4-3.3,0.6c-0.8,0.2-1.2,0.3-1.3,0.3
			c-2.2,0-3.8-0.2-4.8-1c-1-0.6-1.7-1.5-2-2.5c-0.4-1-0.5-1.8-0.5-2.6c0.1-0.7,0.1-1.1,0.1-1.1c1.5-2,2.4-3.6,3-4.9
			c0.5-1.2,0.9-2.1,0.9-2.8c0.1-0.6,0.1-0.8,0.1-0.8c0.1-0.9-0.3-1.5-1.2-1.9c-0.9-0.5-2-0.7-3.4-0.8c-1.2-0.1-2.4-0.1-3.4,0
			c-1,0-1.5,0.1-1.6,0.1c-1.5,0.2-2.7,0.2-3.6,0c-0.9-0.3-1.6-0.7-2-1.2c-0.4-0.6-0.7-1-0.8-1.4c-0.1-0.5-0.1-0.7-0.1-0.7
			c0.7-3.4,1-6,1.2-7.8c0.2-1.7,0.2-3,0.1-3.6c-0.2-0.7-0.3-1.1-0.5-1.1c-0.2-0.1-0.3-0.1-0.3,0c-0.4-0.1-1.1,0.3-2.2,1.1
			c-1.1,0.9-2.3,1.9-3.7,3c-1.3,1.2-2.6,2.3-3.5,3.1c-1,1-1.5,1.4-1.6,1.5c-1.1,0.7-2.1,0.8-2.7,0.5c-0.7-0.3-1.2-1-1.5-1.9
			c-0.3-0.9-0.4-1.9-0.5-3c0-1.1-0.1-2,0-2.8c0-0.8,0.1-1.1,0.1-1.2c1.1-5.2,1.8-9.2,2.1-12.1c0.4-2.9,0.5-5,0.4-6.2
			c0-1.1-0.1-1.7-0.1-1.6c-0.8-1-1.4-1.5-2.1-1.5s-1.2,0.2-1.8,0.7c-0.5,0.5-0.9,1-1.2,1.5c-0.4,0.6-0.5,0.9-0.5,0.9
			c-0.6,1.2-1.7,2.8-3.2,4.7c-1.5,2-3,3.9-4.7,5.9c-1.8,1.9-3.3,3.6-4.6,5c-1.2,1.4-1.8,2-1.9,2.1c-1.9,0.8-3.5,0.9-4.8,0.5
			c-1.1-0.5-2-1.3-2.7-2.3c-0.6-1.2-1.1-2.2-1.3-3.1c-0.3-0.9-0.3-1.4-0.3-1.5c0-3.2-0.2-5.6-0.5-7.4c-0.3-1.9-0.7-3.3-1.1-4.1
			s-0.8-1.4-1.1-1.7c-0.3-0.2-0.5-0.3-0.5-0.2c-0.8-0.7-1.4-0.9-2-0.8c-0.5,0.3-0.8,0.6-1.2,1.1c-0.3,0.6-0.5,1.2-0.6,1.7
			c-0.2,0.5-0.2,0.7-0.2,0.7c0.1,1.1,0.1,2.4,0,4c0,1.6-0.2,3.2-0.4,4.9c-0.2,1.5-0.4,2.9-0.6,4c-0.1,1.1-0.2,1.7-0.2,1.7
			c-1.1,2.8-2.3,4.8-3.4,6c-1,1.3-2,2.1-2.9,2.4c-0.8,0.3-1.5,0.4-2,0.3c-0.6-0.2-0.8-0.2-0.8-0.3c-0.9-0.7-2.1-1.7-3.6-2.8
			c-1.5-1.2-3.1-2.3-4.7-3.3c-1.6-1.1-2.9-2-4.1-2.8c-1.1-0.7-1.6-1.1-1.6-1.1c-1.1-0.1-1.8,0.1-2.1,0.6c-0.4,0.5-0.6,1-0.5,1.6
			c0,0.6,0,0.8,0,0.8c0.2,4,0.2,7,0,9.1c-0.3,2-0.5,3.4-0.9,4.1c-0.3,0.7-0.5,1-0.5,0.9c-0.8,1.2-1.9,1.7-3.1,1.7
			c-1.3-0.1-2.6-0.4-3.9-1c-1.2-0.7-2.4-1.3-3.2-1.9c-0.8-0.6-1.3-1-1.3-1c-0.8-1-1.9-2.1-3.2-3.3c-1.4-1.1-2.9-2.1-4.4-3.1
			c-1.5-0.9-2.8-1.7-3.9-2.2c-1.1-0.7-1.6-0.9-1.6-0.9c-1.2,0.2-1.8,1-1.8,2.4c-0.1,1.3,0.2,2.9,0.7,4.7c0.6,1.9,1.3,3.7,2.1,5.5
			c0.8,1.8,1.5,3.3,2.2,4.4c0.6,1.2,0.9,1.9,1,1.9c1.4,1.7,2.4,3.7,3,5.9c0.6,2.2,0.9,4.2,1,6.2c0,1.9,0,3.5-0.1,4.9
			c-0.1,1.2-0.2,1.8-0.2,1.9c-0.5,1.2-1.5,2.2-2.9,3c-1.5,0.7-3.1,1.3-5,1.7c-1.8,0.3-3.5,0.5-5.3,0.6c-1.7,0.2-3.2,0.3-4.3,0.2
			c-1.2-0.1-1.8-0.1-1.9-0.1c-1.3,0.2-2.2,0.3-2.8,0.7c-0.5,0.2-0.8,0.6-0.7,1c0,0.3,0.1,0.6,0.3,0.9c0.1,0.2,0.2,0.4,0.3,0.4
			c3.9,3.5,6.6,6.5,8.4,8.9c1.9,2.5,3,4.4,3.5,5.9s0.7,2.5,0.5,3.1c-0.1,0.7-0.3,1-0.3,1c0,1-0.5,2.1-1.7,3.2
			c-1.1,1.2-2.5,2.3-4.3,3.5c-1.7,1.1-3.5,2.1-5.2,3c-1.8,1-3.3,1.7-4.5,2.3c-1.2,0.5-1.8,0.9-1.9,0.9c-1.7,1.5-2.6,2.7-2.9,3.7
			c-0.1,1,0,1.8,0.7,2.3c0.6,0.6,1.2,1.1,2,1.3c0.7,0.3,1.1,0.4,1.2,0.4l13.9-1.2c1.5,1,2.4,2.1,2.7,3.3c0.3,1.2,0.2,2.4-0.2,3.5
			c-0.3,1.2-0.6,2.2-1.1,2.9c-0.4,0.8-0.7,1.1-0.7,1.1c-1.4,3.2-2.2,5.5-2.5,7.1c-0.2,1.6-0.1,2.7,0.2,3.2c0.3,0.6,0.4,0.9,0.5,0.8
			l18.2-6.2c1.8,0.1,3,0.6,3.6,1.4c0.7,0.9,1,1.9,1.1,3c0.1,1.2-0.1,2.2-0.2,3c-0.2,0.9-0.3,1.3-0.4,1.4c-0.4,0.8-1.1,2-1.8,3.4
			c-0.8,1.5-1.7,3-2.5,4.6c-0.8,1.5-1.5,2.8-2.2,3.9c-0.5,1-0.8,1.6-0.8,1.6c0,1.5,0.5,2.2,1.6,2.2c1.1,0,2.6-0.5,4.4-1.5
			c1.7-0.9,3.6-2.2,5.6-3.6c2.1-1.4,4-2.8,5.7-4.3c1.8-1.5,3.3-2.7,4.4-3.6c1.1-1.1,1.7-1.6,1.8-1.6v7.2c0.7,3.4,0.7,6.9,0,10.6
			c-0.8,3.9-1.9,7.6-3.5,11.5c-1.7,3.9-3.4,7.5-5.5,11c-2,3.6-3.9,6.8-5.8,9.5c-1.9,2.7-3.5,5-4.6,6.6c-1.3,1.5-1.9,2.3-1.9,2.4
			c1.7-0.6,3.9-2.3,6.4-5c2.5-2.7,5.2-6,8.1-10c3-4,6-8.2,9-12.9c3-4.6,5.8-9.2,8.6-13.7c2.7-4.5,5.2-8.6,7.4-12.4
			c2.1-3.8,3.8-6.7,5.1-8.9c1.2-2.3,1.9-3.5,1.9-3.5c1.5-1.2,2.8-1.6,4.3-1.3c1.5,0.3,2.9,1,4.4,2.3c1.3,1.1,2.6,2.6,3.9,4.3
			c1.2,1.6,2.4,3.2,3.3,4.9c0.9,1.6,1.7,2.9,2.3,4c0.5,1.1,0.8,1.6,0.8,1.6c1.2,4.1,2.3,7.2,3.5,9.4c1.3,2.2,2.4,3.7,3.5,4.7
			c1,0.9,1.8,1.5,2.5,1.6c0.7,0.2,1,0.3,1.1,0.3c1.2-0.4,2-1.3,2.3-2.8c0.4-1.4,0.4-3.2,0.2-5.2c-0.3-2.1-0.5-4.1-1-6.1
			c-0.4-2-0.9-3.7-1.3-5c-0.4-1.3-0.6-2-0.6-2c0-2.1,0.3-3.4,1-4.1c0.6-0.8,1.4-1.1,2.3-1.1c0.8,0.1,1.7,0.3,2.3,0.6
			c0.7,0.3,1,0.4,1.1,0.5c0.1,0,0.2,0.2,0.3,0.2c2.6,1.7,4.6,2.7,6,3.4c1.4,0.6,2.3,0.9,2.9,0.9c0.5,0,0.7-0.1,0.8-0.3
			c0.1-0.3,0.1-0.4,0-0.4c-1.4-3.1-2.3-5.4-2.6-6.9c-0.2-1.5-0.1-2.5,0.1-3c0.3-0.5,0.4-0.7,0.5-0.7c0.2-0.2,0.8-0.3,1.7,0
			c1,0.2,2.1,0.5,3.3,1c1.4,0.4,2.7,0.9,3.9,1.5c1.3,0.5,2.3,0.9,3.1,1.3c0.9,0.4,1.3,0.5,1.4,0.5c1.3-0.6,1.9-1.5,1.8-2.7
			c-0.2-1.3-0.8-2.7-1.8-4.4c-1-1.6-2.1-3.5-3.4-5.5c-1.2-2-2.2-4-3.1-6.2c-0.5-1.6-0.5-2.9,0-3.8c0.4-0.9,1.1-1.5,2.2-1.8
			c1.1-0.4,2.2-0.5,3.3-0.5c1.1,0.1,2.1,0.1,3,0.3c0.8,0,1.2,0.1,1.3,0.1c2.9,0.6,5.7,1,8.4,1.3c2.7,0.4,5.1,0.6,7.2,0.7
			c2.1,0.2,3.8,0.2,5.1,0.3C164.484,109.205,165.084,109.205,165.184,109.205z"/>
	</g>
	<g>
		<path d="M164.884,105.205c-0.6-0.7-1.3-1.2-1.8-1.5c-1.5-1-3.2-1.9-4.8-2.6c-1.6-0.8-3.4-1.4-5-1.9c-0.4-0.1-1-0.3-2-0.5
			c-1.1-0.4-2.2-0.7-3.5-1.1c-1.2-0.4-2.4-0.9-3.3-1.3c-0.9-0.5-1.4-1-1.6-1.5c-0.1-0.4,0.4-0.9,1.6-1.2c2.8-0.9,4.8-1.9,6-2.7
			c1.2-0.9,1.7-1.7,1.7-2.5c0-0.7-0.4-1.4-0.9-2c-0.7-0.6-1.3-1-1.9-1.3c-0.6-0.4-1-0.5-1-0.5c-2.3-1.4-3.8-2.9-4.7-4.2
			c-0.9-1.3-1.3-2.5-1.1-3.6c0.1-1.1,0.4-2.1,1-2.9c0.5-0.7,1.1-1.4,1.6-1.9c0.6-0.4,0.8-0.6,0.9-0.6c4.3-2.9,7.5-5.3,9.5-7.2
			c2-1.9,3.2-3.4,3.7-4.5c0.4-1.1,0.3-2-0.1-2.5c-0.5-0.5-1-0.9-1.7-1c-0.7-0.2-1-0.3-1.1-0.3c-0.8-0.2-2-0.2-3.2-0.1
			c-1.4,0.3-2.8,0.5-4.3,0.9c-1.4,0.4-2.8,0.5-4.1,0.5c-1.4,0.1-2.6-0.3-3.5-0.9c-1-0.6-1.6-1.9-2-3.6c-0.1-1,0.1-2,0.5-3
			c0.5-1.1,1-2.2,1.6-3.3c0.7-1.1,1.2-2.1,1.5-3.1c0.4-1,0.4-1.9,0-2.6c-0.3-0.8-1.2-1.4-2.7-1.8c-1-0.2-2-0.3-3-0.3
			c-1-0.1-2-0.2-3-0.2c-1-0.1-2-0.2-3-0.6c-1.8-0.6-2.9-1.6-3.5-3.1c-0.5-1.4-0.6-3,0-4.8c0.8-2.7,1.1-4.7,1-5.7
			c-0.2-1.1-0.7-1.7-1.4-1.6c-0.8,0-1.6,0.3-2.5,0.8c-1,0.7-1.8,1.3-2.5,1.8c-0.7,0.7-1,1-1.1,1c-0.5,0.5-1.1,1.1-1.8,1.9
			c-0.7,0.6-1.4,1.2-2.2,1.6c-0.9,0.4-1.7,0.4-2.4,0c-0.9-0.6-1.5-1.5-1.7-2.6c-0.3-1.3-0.3-2.7-0.3-4.2c0.1-1.4,0.3-2.8,0.5-4.2
			c0.2-1.3,0.3-2.4,0.4-3.1c0.1-1.2,0.4-2.3,0.6-3.4c0.3-1.1,0.5-2.3,0.6-3.4c0.2-1,0.2-2.1,0.2-3.2c-0.1-1.2-0.4-2.2-0.9-3.2
			s-1.2-1.7-2.3-2.2c-1.1-0.3-2-0.3-2.7,0.2c-0.8,0.5-1.5,1.3-2,2.1c-0.6,0.9-1.1,1.7-1.4,2.6c-0.8,1.5-1.5,3-2.3,4.6
			c-1.2,2-2.4,4-3.9,6.1c-1.4,2-3.1,3.8-5,5.3c-0.9,0.7-2,1.1-3.1,1.3c-1.2,0.2-2.3-0.1-3.4-0.8c-1.1-0.9-1.8-2.3-2.1-4.1
			s-0.7-3.8-0.8-5.9c-0.2-2.1-0.5-4-0.9-5.8c-0.3-1.1-0.8-2-1.4-2.7c-0.6-0.8-1.4-1.3-2.4-1.5c-0.9-0.3-1.6,0-2.2,0.5
			c-0.5,0.6-0.8,1.2-1.1,2.2c-0.2,0.9-0.4,1.9-0.4,2.9c-0.1,0.9-0.1,1.6,0,2.3c0,2.1-0.1,4.2-0.6,6.5s-1.3,4.3-2.4,6.2
			c-1.1,1.9-2.5,3.1-4.3,3.8c-1.7,0.7-3.8,0.4-6.3-0.7c-0.8-0.5-1.7-1.1-2.7-2c-0.9-0.9-1.9-1.7-2.9-2.6c-1-1-2-1.6-3.1-2.2
			c-1-0.6-2-0.8-3-0.5c-1,0.2-1.5,0.8-1.9,1.6c-0.3,0.8-0.5,1.7-0.5,2.6c0.1,1,0.1,1.9,0.2,2.6c0.1,1.3,0.2,2.7,0.2,4.3
			c0.2,1.6,0.1,3.1-0.1,4.5c-0.3,1.3-0.8,2.3-1.8,3c-0.9,0.6-2.3,0.5-4.4-0.3c-0.9-0.4-1.8-1-2.7-1.7c-0.9-0.8-1.7-1.4-2.5-2
			c-0.7-0.5-1.7-1.4-2.9-2.3c-1.1-1-2.3-2-3.7-3c-1.3-1-2.6-1.8-4-2.5c-1.2-0.6-2.3-0.9-3.3-0.9c-1.2,0.2-2,0.8-2.2,1.8
			c-0.3,1.1-0.3,2.4,0,4c0.4,1.5,1,3.1,1.6,4.7c0.6,1.7,1.3,3.1,1.9,4.4c0.7,1.3,1.1,2.2,1.4,2.8c0.9,1.8,1.8,3.8,2.7,6
			c0.9,2.1,1.5,4.2,1.8,6.5c0.2,2.1-0.1,4.2-1,6.4c-0.7,1.6-1.7,2.8-3.1,3.7c-1.3,1-2.9,1.7-4.6,2.1c-1.6,0.4-3.2,0.6-4.8,0.4
			c-3.6-0.2-6.2-0.1-7.9,0.3c-1.6,0.4-2.5,1-2.7,1.7c-0.2,0.8,0,1.6,0.6,2.5c0.7,1,1.5,1.8,2.6,2.7c0.9,0.8,1.8,1.5,2.6,2.1
			c0.8,0.5,1.2,0.8,1.3,0.8c1.8,1.2,3.2,2.6,4.3,4.3c1.2,1.6,1.9,3.4,2.2,5.2c0.2,1.9-0.1,3.6-0.9,5.2c-0.8,1.6-2.1,2.9-4.2,3.9
			c-0.8,0.4-2.1,1-3.7,1.7c-1.6,0.6-3.3,1.4-5,2.4c-1.8,1-3.3,2-4.6,3.1c-1.3,1.1-2.1,2.4-2.3,3.7c-0.3,1.3,0.2,2.7,1.6,4.1
			c0.8,0.8,1.8,1.3,3,1.5c1.1,0.1,2.3,0.1,3.6,0c1.1-0.2,2.3-0.3,3.4-0.4c3.2-0.4,5.5-0.2,6.7,0.6c1.3,0.7,1.9,1.9,1.7,3.4
			c0,1.5-0.5,3.2-1.3,5c-0.7,1.9-1.5,3.7-2.2,5.4c-0.8,1.8-1.2,3.2-1.2,4.4c-0.1,1.2,0.5,1.9,1.9,2.2c0.9,0,2.3-0.3,4.1-1
			c1.9-0.7,3.9-1.5,6.1-2.4c2.1-0.9,4.2-1.5,6.1-1.9c2-0.5,3.5-0.3,4.7,0.3c1.1,0.7,1.5,2.2,1.2,4.7c-0.2,1.4-0.6,2.8-1.2,4
			c-0.7,1.3-1.4,2.5-2.2,3.8c-0.8,1.1-1.6,2.4-2.3,3.5c-0.3,0.6-0.8,1.5-1.3,2.5s-0.8,2-0.9,3c0,1,0.4,1.7,1.4,2.1s2,0.3,3.3-0.1
			c1.2-0.4,2.4-1,3.7-1.7c1.2-0.8,2.4-1.5,3.5-2.3c1-0.8,1.9-1.5,2.6-1.9c0.3-0.2,0.9-0.6,1.9-1.4c0.9-0.7,2-1.5,3-2.3
			c1.2-0.9,2.1-1.7,3-2.3s1.3-0.9,1.4-1c0.4,5.2,0,10.3-1.1,15.3c-1.2,5-2.8,9.8-4.8,14.4c-2,4.6-4.2,8.8-6.7,12.8
			c-2.4,3.8-4.7,7.2-6.9,10.1c-2.2,3-4,5.3-5.4,6.8c-1.4,1.7-2.1,2.4-2.2,2.5c2.1-0.9,4-1.9,5.7-2.9c1.8-1,3.4-2.1,4.8-3.4
			c4.3-4,8.4-8.4,12.1-13.1c3.6-4.7,7.2-9.5,10.6-14.4c3.3-4.7,6.5-9.5,9.6-14.3c0.7-1,1.4-2.4,2.5-4.2c1.1-1.7,2.2-3.7,3.3-5.7
			c1.1-2,2.3-4,3.3-5.8c1-1.7,1.8-3.1,2.4-4c0-0.1,0.2-0.4,0.6-0.9c0.3-0.6,1-1.1,1.7-1.6c0.8-0.5,1.7-0.8,2.8-0.8
			c1.1,0.1,2.3,0.6,3.7,1.6s2.9,2.9,4.6,5.5c1.8,2.6,3.5,6.3,5.5,11c0.3,0.9,0.8,2,1.5,3.4c0.6,1.3,1.3,2.6,2.1,4
			c0.9,1.3,1.7,2.5,2.7,3.5c1,0.9,2.1,1.5,3.3,1.6c1.2,0.1,2.1-0.3,2.7-1.1c0.7-0.9,1.2-1.9,1.4-3.2c0.2-1.2,0.3-2.2,0.3-3.2
			c-0.2-2.1-0.6-4.2-1.2-6.3c-0.5-2-1-4.1-1.4-6.2c-0.2-1.5-0.1-2.5,0.4-3.2c0.6-0.6,1.4-1,2.4-1s2,0.2,3.1,0.6
			c1.2,0.4,2.3,0.9,3.2,1.5c1,0.6,1.8,1.2,2.8,1.9c1,0.7,2,1.2,3,1.5c0.9,0.2,1.5,0.2,1.8-0.2c0.2-0.3,0.3-0.9,0.2-1.6
			c-0.2-0.6-0.4-1.4-0.7-2c-0.3-0.8-0.5-1.3-0.8-1.7c-0.3-0.6-0.8-1.3-1.5-2.3c-0.6-1-1-2-1.2-3c-0.2-1,0.2-1.8,1.2-2.3
			c0.8-0.4,1.8-0.5,2.8-0.1c1.1,0.3,2.1,0.7,3.1,1.2c1,0.6,1.9,1.1,2.6,1.4c0.5,0.3,1,0.6,1.5,1c0.5,0.3,1,0.6,1.6,0.8
			c1.8,0.5,3,0.5,3.9-0.3c0.8-0.7,1-1.9,0.7-3.6c-0.3-1.1-0.8-2.1-1.7-3.1c-0.8-1-1.5-2-2.2-2.9c-0.7-0.9-1.4-2-2.2-3.1
			c-0.7-1.1-1.3-2.3-1.8-3.4c-0.6-1.2-0.9-2.4-1.1-3.6c-0.1-1.2,0.3-2,1.1-2.6c0.7-0.6,1.6-0.9,2.7-1.1c1.1-0.1,2.1-0.2,3-0.2
			c0.9,0,1.8,0.1,2.6,0.2c4.8,0.8,9.7,1.4,14.5,1.9c0.8,0.1,1.7,0.3,2.8,0.4c1.1,0.1,2.1,0.2,3.1,0.1c1.1-0.1,1.9-0.5,2.4-1.2
			c0.5-0.8,0.5-1.5,0.1-2.3C166.084,106.505,165.584,105.805,164.884,105.205z M164.783,107.705c0,0.1-0.1,0.1-0.5,0.3
			c-0.3,0.2-1.2,0.2-2.7,0.2s-3.9-0.3-7.3-0.8c-3.3-0.5-7.9-1.4-13.8-2.7c-0.7-0.1-1.4-0.2-2.4-0.2c-0.9,0-1.8,0-2.8,0.1
			c-0.9,0.1-1.7,0.2-2.4,0.4c-1,0.3-1.6,0.9-1.9,1.7c-0.2,0.8-0.2,1.8,0.1,2.8c0.3,1,0.7,2,1.2,3.1c0.5,1,1,1.9,1.4,2.6
			c0.6,1.3,1.2,2.6,2,4c0.6,1.3,1.4,2.5,2,3.8c0.3,0.6,0.6,1.3,1.1,2.2c0.5,0.8,0.8,1.6,1,2.5c0.3,0.8,0.3,1.5,0,2.3
			c-0.2,0.3-0.7,0.3-1.4,0.2c-0.7-0.2-1.5-0.4-2.4-0.8s-1.7-0.7-2.5-1.1c-0.7-0.3-1.3-0.6-1.6-0.8c-1.1-0.3-1.9-0.7-2.5-0.8
			c-0.5-0.2-1-0.4-1.4-0.5c-0.4-0.2-1-0.2-1.7-0.4c-1-0.1-1.7,0-2.1,0.5c-0.4,0.5-0.6,1.2-0.5,2.1c0,0.9,0.2,1.8,0.5,2.6
			c0.2,1,0.5,1.7,0.8,2.2c0,0,0.2,0.4,0.6,1c0.3,0.6,0.6,1.2,0.7,1.8c0.2,0.5,0,0.7-0.5,0.6c-0.6-0.1-1.8-0.9-3.6-2.4
			c0,0-0.4-0.3-0.9-0.9c-0.6-0.5-1.4-1-2.5-1.6c-1-0.5-2.1-0.9-3.5-1c-1.2-0.2-2.6,0.1-4.1,0.8c0,0-0.2,0.2-0.5,0.7
			c-0.4,0.4-0.7,1.1-1,2.1c-0.2,1.1-0.4,2.5-0.2,4.2c0.2,1.8,0.8,4,1.7,6.6c0.1,0.1,0.3,0.7,0.6,1.8c0.5,1.1,0.9,2.5,1.2,4
			c0.3,1.6,0.5,3,0.3,4.3c-0.1,1.3-0.7,2.2-1.8,2.6c-1.2,0.3-2.3,0.2-3.3-0.7s-1.9-2-2.7-3.5c-0.8-1.4-1.4-2.8-2-4.2
			c-0.5-1.5-0.9-2.6-1.2-3.4c-0.7-2-1.5-3.9-2.5-5.8c-0.5-1.1-1-2.3-1.7-3.7c-0.7-1.3-1.4-2.5-2.1-3.5c-2.3-3.5-4.4-6-6.3-7.5
			c-1.9-1.4-3.5-2.1-4.9-2.1c-1.5-0.1-2.6,0.3-3.6,1c-0.9,0.7-1.7,1.4-2.1,2.1c-0.5,0.8-0.8,1.2-0.8,1.2c0,0.1-0.5,1-1.5,3
			s-2.3,4.5-4,7.7c-1.7,3.2-3.6,6.7-5.8,10.6c-2.1,3.9-4.3,7.8-6.6,11.7c-2.3,4-4.5,7.7-6.7,11.2c-2.2,3.4-4.2,6.2-6.1,8.5
			c-1.7,2.3-3.2,3.8-4.4,4.4c0.2-0.1,0.3-0.3,0.5-0.7c0.2-0.3,0.4-0.7,0.6-1c0.1-0.4,0.2-0.7,0.3-0.9c1.3-2.3,2.5-4.8,3.6-7.3
			c1.8-3.8,3.4-7.8,4.8-11.8c1.5-4,2.7-8.1,3.6-12.2c0.5-2.7,0.9-5.3,1.2-7.9c0.1-1,0.2-2,0.2-3s0-2.1,0-3.2c0-0.3,0-0.8,0-1.7
			c-0.1-0.9-0.1-1.6-0.1-2.4c0-0.9,0-1.3,0.1-1.4c-2.1,1.7-4.1,3.5-6.2,5.6c-2.1,2.1-4.3,4-6.4,6c-2.2,1.8-4.4,3.5-6.8,4.7
			c-0.2,0.3-0.6,0.5-1.1,0.8c-0.5,0.2-1,0.5-1.6,0.6c-0.5,0.1-1,0.1-1.4,0c-0.4-0.4-0.6-0.9-0.5-1.5s0.3-1.1,0.5-1.6
			c0.9-1.7,2-3.4,3.2-5.2c1.3-1.7,2.4-3.5,3.4-5.2c1-1.8,1.6-3.5,1.8-5.3c0.1-1.7-0.4-3.4-1.6-5c-0.7-0.9-1.4-1.4-2.3-1.6
			c-0.9-0.3-2-0.4-3.4-0.2c-1.1,0.1-2.2,0.5-3.5,1.1c-1.2,0.7-2.5,1.3-3.6,2c-1.2,0.7-2.4,1.2-3.4,1.6c-0.6,0.2-1.3,0.4-2.2,0.6
			c-1,0.1-1.8,0.1-2.6,0c-0.8-0.2-1.4-0.5-1.7-1.2c-0.3-1-0.2-2,0.3-3s1.1-2.1,1.9-3c0.7-1,1.3-1.9,1.8-2.6c0.5-0.9,1-1.7,1.5-2.8
			c0.6-1.1,1-2.1,1.3-3.2c0.2-1.1,0.2-2.2-0.1-3.3c0-0.1-0.2-0.4-0.4-0.9c-0.2-0.4-0.5-0.8-1-1.2c-1.2-1-2.6-1.6-4.2-1.7
			c-1.6-0.1-3.2,0-4.8,0.4c-1.7,0.5-3.2,0.9-4.7,1.5c-1.5,0.5-2.8,0.9-3.9,1.1c-1.3,0.4-2.4,0.4-3.2,0c-0.8-0.3-1.2-0.8-1.2-1.4
			c-0.1-0.7,0.2-1.4,1.1-2.2c0.6-0.5,1.6-1.2,3-2c1.5-0.7,3.1-1.5,4.8-2.4c1.7-0.8,3.3-1.6,4.8-2.5c1.5-0.8,2.5-1.6,3.3-2.4
			c0,0,0.4-0.2,0.9-0.8c0.6-0.6,1.2-1.4,1.8-2.6c0.5-1.1,0.9-2.5,1-4c0-1.6-0.3-3.4-1.3-5.4c-0.9-2.1-2.7-4.3-5.1-6.6
			c-0.1-0.1-0.3-0.3-0.9-0.8c-0.5-0.5-1.2-1-1.9-1.8c-0.7-0.6-1.2-1.2-1.7-1.9c-0.4-0.7-0.5-1.1-0.3-1.4c0.3-0.4,1.2-0.4,2.5-0.2
			c0,0.1,0.8,0.2,2,0.3c1.2,0,2.9,0,4.8,0c1.9,0,3.9-0.3,5.9-0.8c2-0.4,3.8-1.2,5.3-2.3c1.6-1.2,2.6-2.7,3.1-4.8
			c0.6-3.3,0.6-6.5-0.2-9.4c-0.9-2.8-2.2-5.7-3.8-8.6c-1.6-2.8-3.4-5.9-5.3-9.1c-0.4-0.8-0.9-1.6-1.4-2.6s-0.9-2-1.2-3
			c-0.4-1-0.5-2-0.3-2.9c0.1-1,0.5-1.4,1-1.5c0.5,0,1.1,0.2,1.8,0.7c2,1.4,4,2.9,5.8,4.7c1.9,1.7,3.8,3.3,5.9,4.7
			c0.8,0.6,1.8,1.3,3.1,1.9c1.2,0.7,2.5,1.1,3.7,1.4c1.4,0.2,2.5-0.1,3.5-0.9c1.4-1.1,2.4-2.2,2.9-3.4c0.5-1.1,0.8-2.3,0.8-3.5
			c0-1.2,0-2.5-0.2-3.7c-0.1-1.3-0.2-2.6-0.1-3.9c-0.1-0.8,0-1.5,0.1-2.3c0.2-0.7,0.6-1.2,1.3-1.4c0.6-0.1,1.1,0.1,1.7,0.3
			c0.6,0.4,1.1,0.6,1.5,0.9c0.9,0.7,1.9,1.6,2.9,2.8s2.1,2.5,3.2,3.8c1.1,1.4,2.3,2.5,3.4,3.5c1.2,0.9,2.4,1.5,3.6,1.8
			c1.1,0.1,2.3-0.4,3.6-1.4c1.7-1.6,3-3.8,4-6.5c0.9-2.7,1.5-5.8,1.9-9.1c0.3-3.4,0.3-7,0.1-10.8c0-1,0.2-1.7,0.7-2
			c0.5-0.4,1.2-0.1,2,0.6c0.8,0.8,1.3,1.9,1.5,3.3c0.2,1.3,0.3,2.5,0.2,3.6c0,1.1,0.1,2.4,0.3,3.9s0.5,3,1,4.6
			c0.5,1.5,1.2,2.9,1.9,4.1c0.8,1.2,1.8,1.8,3,2.2c1.4,0.2,2.6,0.1,3.9-0.5c1.4-0.6,2.7-1.4,3.9-2.5c1.3-1.2,2.4-2.3,3.5-3.5
			c1-1.2,1.9-2.3,2.6-3.2c1.5-1.8,2.9-3.8,4.1-5.9c0.3-0.6,0.6-1.2,0.9-1.8c0.4-0.8,0.8-1.4,1.2-2c0.4-0.7,0.8-1.1,1.4-1.5
			c0.7-0.3,1.1-0.1,1.4,0.3c0.4,0.4,0.5,1.1,0.7,1.9c0,0.8,0.1,1.7,0.1,2.4c-0.1,0.9-0.1,1.4-0.2,1.8c-0.3,1.8-0.7,3.6-1.3,5.5
			c-0.6,1.8-1.1,3.6-1.6,5.5c-0.5,1.8-0.7,3.7-0.7,5.6c0,1.1,0.2,2.3,0.4,3.5c0.3,1.3,0.8,2.5,1.4,3.4c0.6,1,1.3,1.6,2.2,1.7
			c1,0.1,2.2-0.3,3.5-1.5c0,0,0.5-0.6,1.5-1.6s2.1-2.3,3.4-3.7c1.3-1.4,2.5-2.6,3.6-3.7c1-1,1.6-1.6,1.9-1.6c0,0,0.1,0,0.3,0.1
			c0.1,0.1,0.3,0.5,0.3,1.2c0.1,0.7,0,1.7-0.2,3.3c-0.3,1.6-0.8,3.9-1.5,6.9c-0.1,0-0.2,0.4-0.3,1c-0.2,0.7-0.2,1.4-0.1,2.2
			c0,0.8,0.4,1.5,1.1,2c0.7,0.5,1.9,0.6,3.6,0.3c0,0,0.7-0.1,1.7-0.3c1.1-0.1,2.3-0.2,3.7-0.4c1.5-0.1,2.9-0.1,4,0.2
			c1.1,0.1,1.9,0.6,2.1,1.3c0,0,0,0.2,0,0.7c0.1,0.5-0.1,1.2-0.3,2.1c-0.3,0.9-0.8,1.9-1.7,3c0,0.1-0.3,0.5-0.8,1.5
			c-0.5,0.9-0.9,2-1.3,3.3c-0.4,1.3-0.3,2.6,0.1,3.8c0.5,1.3,1.7,2.2,3.6,2.8c0.1,0,0.4,0.1,1.3,0.2c0.9,0.1,2,0.1,3.4,0
			c1.3,0,2.9-0.3,4.6-0.9c0,0,0.4-0.1,1-0.3c0.7-0.1,1.5-0.2,2.4-0.3c0.9-0.2,1.6-0.2,2.3,0c0.7,0.1,1,0.4,1.1,0.9
			c0,0.5-0.5,1.4-1.5,2.4c-0.3,0.4-0.9,0.9-1.8,1.5c-0.8,0.7-1.8,1.4-2.9,1.8c-3.6,1.4-6.1,2.7-7.7,3.8c-1.6,1.1-2.4,1.7-2.4,1.8
			c-1.1,1.1-1.8,2.4-1.9,3.8c0,1.5,0.3,3,1,4.5c0.7,1.4,1.6,2.8,2.7,3.9c0,0,0.6,0.6,1.7,1.7c1.1,1,3,2.2,5.5,3.5
			c0,0,0.1,0.1,0.3,0.2c0.2,0.2,0.2,0.5,0.1,0.7c-0.1,0.3-0.6,0.7-1.4,1.1c-0.9,0.5-2.3,1-4.2,1.7c-0.1,0-0.4,0.1-0.9,0.4
			c-0.6,0.2-1.2,0.6-1.9,1.1c-0.6,0.4-1,0.9-1.2,1.5c-0.3,0.6,0,1.2,0.7,2c0.6,0.6,2,1.3,4,2c0,0.1,0.8,0.3,2.2,0.7
			c1.3,0.5,3.1,1,5.1,1.8c2.1,0.8,4.1,1.5,6,2.3c2,0.9,3.6,1.7,4.7,2.5C164.584,106.405,165.084,107.105,164.783,107.705z"/>
	</g>
</g>
</svg>
