<?xml version="1.0" encoding="utf-8"?>
<!-- Generator: Adobe Illustrator 13.0.1, SVG Export Plug-In . SVG Version: 6.00 Build 14948)  -->
<!DOCTYPE svg PUBLIC "-//W3C//DTD SVG 1.1//EN" "http://www.w3.org/Graphics/SVG/1.1/DTD/svg11.dtd">
<svg version="1.1" id="图层_1" xmlns="http://www.w3.org/2000/svg" xmlns:xlink="http://www.w3.org/1999/xlink" x="0px" y="0px"
	 width="200px" height="174.7px" viewBox="0 0 200 174.7" enable-background="new 0 0 200 174.7" xml:space="preserve">
	 
	 <rect id="bubblerect" stroke-width="0" x="35.458" y="30.084"  fill="none" stroke="#000000" width="135.666" height="90.667"/> 
	 
<g>
	<g>
		<path fill="#FFFFFF" d="M191.7,50.9c-3.3-6.9-7.8-13.3-13.7-19c-5.9-5.8-12.9-10.8-20.9-15c-8.1-4.3-16.9-7.5-26.5-9.9
			c-9.7-2.4-19.8-3.5-30.6-3.6C89.3,3.5,79.2,4.6,69.5,7C59.9,9.4,51,12.6,43,16.9c-8.1,4.2-15.1,9.2-20.9,15
			c-6,5.7-10.5,12.1-13.8,19c-3.2,7-4.8,14.2-4.9,22c0.1,7.6,1.7,15,4.9,21.9c3.3,6.9,7.8,13.3,13.8,19c5.8,5.8,12.8,10.8,20.9,15
			c8,4.3,16.8,7.6,26.5,9.9c9.6,2.4,19.8,3.5,30.5,3.5c10.8,0,20.9-1.1,30.6-3.5c9.6-2.3,18.5-5.6,26.5-9.9c8.1-4.2,15-9.2,20.9-15
			c5.9-5.7,10.4-12.1,13.7-19c3.2-6.9,4.9-14.3,5-21.9C196.6,65.1,194.9,57.9,191.7,50.9z"/>
	</g>
	<g>
		<path d="M186.1,35.6c-4.5-5.3-9.8-10.2-15.8-14.6c-6-4.4-12.8-8.1-20.2-11.2c-7.4-3.2-15.3-5.5-23.8-7.2
			C117.9,0.9,109.2,0.1,100,0c-9.2,0.1-17.9,0.9-26.3,2.6c-8.4,1.7-16.3,4-23.8,7.2c-7.4,3.1-14.1,6.8-20.2,11.2
			c-6.1,4.4-11.3,9.3-15.8,14.6C9.5,41.1,6.1,46.9,3.7,53.2C1.3,59.4,0.1,66,0,72.9c0.1,6.8,1.3,13.3,3.7,19.6
			c2.4,6.2,5.8,12.1,10.2,17.5c4.5,5.4,9.7,10.3,15.8,14.7c6.1,4.3,12.8,8,20.3,11.2c7.4,3.2,15.3,5.5,23.7,7.2
			c8.4,1.7,17.1,2.5,26.3,2.5s17.9-0.8,26.3-2.5c8.5-1.7,16.4-4,23.8-7.2c7.4-3.2,14.2-6.9,20.2-11.2c6-4.4,11.3-9.3,15.8-14.7
			c4.4-5.4,7.8-11.3,10.2-17.5c2.5-6.3,3.6-12.8,3.7-19.6c-0.1-6.9-1.2-13.5-3.7-19.7C193.9,46.9,190.5,41.1,186.1,35.6z
			 M166.3,26.5c5.7,4,10.5,8.5,14.5,13.4c4,5,7,10.1,9.2,15.7c2.2,5.5,3.2,11.3,3.3,17.3c-0.1,5.9-1.1,11.6-3.3,17.2
			s-5.2,10.8-9.2,15.6c-4,5-8.8,9.5-14.5,13.5c-5.6,4-11.9,7.5-18.9,10.5c-6.9,2.9-14.4,5.1-22.3,6.7c-8,1.7-16.4,2.4-25.1,2.4
			s-17-0.7-25-2.4c-8-1.6-15.5-3.8-22.5-6.7c-6.9-3-13.2-6.5-18.9-10.5c-5.6-4-10.4-8.5-14.4-13.5c-4-4.8-7-10-9.2-15.6
			S6.8,78.8,6.8,72.9c0-6,1-11.8,3.2-17.3c2.2-5.6,5.2-10.7,9.2-15.7c4-4.9,8.8-9.4,14.4-13.4c5.7-4.1,12-7.5,18.9-10.5
			c7-2.9,14.5-5.1,22.5-6.7c8-1.7,16.3-2.4,25-2.5c8.7,0.1,17.1,0.8,25.1,2.5c7.9,1.6,15.4,3.8,22.3,6.7
			C154.4,19,160.7,22.4,166.3,26.5z"/>
	</g>
	<g>
		<path fill="#FFFFFF" d="M96.5,143.8c0-3-1.1-5.6-3.2-8c-2.1-2.4-5-4.2-8.6-5.7c-3.6-1.4-7.7-2.1-12.1-2.2
			c-4.4,0.1-8.5,0.8-12.1,2.2c-3.6,1.5-6.5,3.3-8.6,5.7c-2.1,2.4-3.2,5-3.3,8c0.1,3,1.2,5.6,3.3,8c2.1,2.4,5,4.3,8.6,5.8
			c3.6,1.3,7.7,2,12.1,2.1c4.4-0.1,8.5-0.8,12.1-2.2c3.6-1.4,6.5-3.3,8.6-5.7C95.4,149.4,96.5,146.8,96.5,143.8z"/>
	</g>
	<g>
		<path d="M91.4,157.8c2.6-1.6,4.6-3.6,6.1-6s2.3-5,2.4-8c-0.1-3-0.9-5.6-2.4-8s-3.5-4.4-6.1-6.1c-2.6-1.6-5.4-2.9-8.6-3.8
			c-3.1-0.9-6.5-1.3-10.2-1.3c-3.6,0-7.1,0.4-10.2,1.3c-3.3,0.9-6.1,2.2-8.6,3.8c-2.5,1.7-4.6,3.7-6.2,6.1c-1.5,2.4-2.3,5-2.3,8
			s0.8,5.6,2.3,8c1.6,2.4,3.7,4.4,6.2,6c2.5,1.7,5.3,3,8.6,3.9c3.1,0.9,6.6,1.3,10.2,1.3c3.7,0,7.1-0.4,10.2-1.3
			C86,160.8,88.8,159.5,91.4,157.8z M87.7,135.4c1.8,1.3,3.2,2.6,4.1,4c0.9,1.5,1.4,2.9,1.4,4.4s-0.5,2.9-1.4,4.3
			c-0.9,1.5-2.3,2.8-4.1,4.1c-1.9,1.2-4.2,2.2-6.7,2.9c-2.5,0.8-5.3,1.2-8.4,1.2c-3.1,0-5.8-0.4-8.4-1.2c-2.6-0.7-4.8-1.7-6.7-2.9
			c-1.9-1.3-3.2-2.6-4.1-4.1c-0.9-1.4-1.4-2.8-1.4-4.3s0.5-2.9,1.4-4.4c0.9-1.4,2.2-2.7,4.1-4c1.9-1.2,4.1-2.2,6.7-3
			c2.6-0.7,5.3-1.1,8.4-1.1c3,0,5.8,0.4,8.4,1.1C83.5,133.2,85.8,134.2,87.7,135.4z"/>
	</g>
	<g>
		<path fill="#FFFFFF" d="M63.1,160.6c-0.1-2-0.6-3.8-1.6-5.4s-2.4-2.9-4-3.9c-1.7-0.9-3.6-1.4-5.8-1.4s-4.1,0.5-5.7,1.4
			c-1.8,1-3.1,2.3-4.1,3.9s-1.5,3.4-1.6,5.4c0.1,2,0.6,3.8,1.6,5.4c1,1.7,2.3,2.9,4.1,3.9c1.6,0.9,3.5,1.4,5.7,1.4
			c2.1,0,4-0.5,5.8-1.4c1.6-1,3-2.2,4-3.9C62.5,164.4,63,162.6,63.1,160.6z"/>
	</g>
	<g>
		<path d="M64.4,153.4c-1.4-2.1-3.1-3.8-5.4-5c-2.1-1.3-4.6-1.8-7.3-1.9c-2.7,0.1-5.2,0.6-7.4,1.9c-2.3,1.2-4,2.9-5.3,5
			c-1.4,2.2-2,4.5-2.1,7.2c0.1,2.7,0.7,5,2.1,7.2c1.3,2.1,3,3.8,5.3,5c2.2,1.2,4.7,1.8,7.4,1.9c2.7-0.1,5.2-0.7,7.3-1.9
			c2.3-1.2,4-2.9,5.4-5c1.4-2.2,2-4.5,2.1-7.2C66.4,157.9,65.8,155.6,64.4,153.4z M58.6,157c0.7,1.1,1,2.3,1.1,3.6
			c-0.1,2-0.8,3.7-2.3,5.1c-1.4,1.5-3.4,2.2-5.7,2.2c-1.6,0-2.9-0.4-4.2-1c-1.1-0.6-2.1-1.5-2.7-2.7c-0.8-1.1-1.1-2.3-1.2-3.6
			c0.1-2,0.9-3.7,2.4-5.1c1.5-1.4,3.4-2.2,5.7-2.2c1.6,0,2.9,0.3,4.1,1C57,155,58,155.9,58.6,157z"/>
	</g>
</g>
</svg>
