<?xml version="1.0" encoding="utf-8"?>
<!-- Generator: Adobe Illustrator 13.0.1, SVG Export Plug-In . SVG Version: 6.00 Build 14948)  -->
<!DOCTYPE svg PUBLIC "-//W3C//DTD SVG 1.1//EN" "http://www.w3.org/Graphics/SVG/1.1/DTD/svg11.dtd">
<svg version="1.1" id="图层_1" xmlns="http://www.w3.org/2000/svg" xmlns:xlink="http://www.w3.org/1999/xlink" x="0px" y="0px"
	 width="200px" height="145.1px" viewBox="0 0 200 145.1" enable-background="new 0 0 200 145.1" xml:space="preserve">
	 
	 <rect id="bubblerect" stroke-width="0" x="15.458" y="10.084"  fill="none" stroke="#000000" width="165.666" height="80.667"/>
	 
<g>
	<g>
		<path fill="#FFFFFF" d="M190.1,5.1c-2-1.2-4.3-1.8-6.8-1.8H16.6c-2.4,0-4.7,0.6-6.8,1.8C7.8,6.3,6.3,7.9,5,9.9
			c-1.1,2-1.7,4.3-1.8,6.8V83c0.1,3.1,1,5.7,2.7,8.1L42,135.8V96.4h141.3c2.5-0.1,4.7-0.7,6.8-1.8c2-1.2,3.6-2.8,4.8-4.9
			c1.2-2,1.8-4.2,1.8-6.7V16.7c0-2.5-0.6-4.8-1.9-6.8C193.7,7.9,192.1,6.3,190.1,5.1z"/>
	</g>
	<g>
		<path d="M200,16.8c-0.1-3.2-0.8-6-2.3-8.5c-1.4-2.5-3.4-4.5-5.9-6c-2.6-1.5-5.4-2.2-8.5-2.3H16.7c-3.1,0.1-5.9,0.8-8.4,2.3
			s-4.5,3.5-6,6S0.1,13.7,0,16.8v66.3c0,1.8,0.3,3.6,0.9,5.3c0.6,1.7,1.4,3.2,2.5,4.7l41.9,52V99.7h138c3.1-0.1,5.9-0.8,8.5-2.2
			c2.5-1.5,4.5-3.5,5.9-6c1.5-2.5,2.2-5.4,2.3-8.4V16.8z M183.3,6.5c1.9,0,3.6,0.5,5.1,1.4c1.6,0.9,2.8,2.1,3.7,3.7s1.3,3.2,1.4,5.2
			v66.3c0,1.8-0.4,3.5-1.4,5c-0.9,1.6-2.1,2.8-3.7,3.7c-1.5,0.9-3.2,1.3-5.1,1.4H38.8v33.5L8.5,89.1c-1.3-1.7-2-3.7-2-6V16.8
			c0-2,0.5-3.6,1.4-5.2C8.8,10,10,8.8,11.6,7.9c1.5-0.9,3.2-1.3,5.1-1.4H183.3z"/>
	</g>
</g>
</svg>
