<?xml version="1.0" encoding="utf-8"?>
<!-- Generator: Adobe Illustrator 13.0.1, SVG Export Plug-In . SVG Version: 6.00 Build 14948)  -->
<!DOCTYPE svg PUBLIC "-//W3C//DTD SVG 1.1//EN" "http://www.w3.org/Graphics/SVG/1.1/DTD/svg11.dtd">
<svg version="1.1" id="图层_1" xmlns="http://www.w3.org/2000/svg" xmlns:xlink="http://www.w3.org/1999/xlink" x="0px" y="0px"
	 width="200px" height="128.2px" viewBox="0 0 200 128.2" enable-background="new 0 0 200 128.2" xml:space="preserve">
	 
	 <rect id="bubblerect" stroke-width="0" x="43.458" y="20.084"  fill="none" stroke="#000000" width="120.666" height="80.667"/>
	 
<g>
	<g>
		<path fill="#FFFFFF" d="M187.8,25.9c0-2.4-0.5-4.5-1.6-6.5c-1.2-1.9-2.7-3.4-4.6-4.5c-1.9-1.1-4-1.7-6.3-1.7H23.9
			c-2.3,0-4.5,0.6-6.3,1.7c-1.9,1.1-3.4,2.6-4.5,4.5c-1.2,2-1.7,4.1-1.8,6.5v73.2c0.1,2.4,0.6,4.5,1.8,6.5c1.1,1.8,2.6,3.3,4.5,4.5
			c1.8,1.1,4,1.7,6.3,1.7h151.4c2.3,0,4.4-0.6,6.3-1.7c1.9-1.2,3.4-2.7,4.6-4.5c1.1-2,1.6-4.1,1.6-6.5V25.9z"/>
	</g>
	<g>
		<path d="M173.9,16c1.9,0,3.5,0.5,5.1,1.4c1.5,0.8,2.7,2,3.6,3.6c0.8,1.5,1.3,3.2,1.3,5v31.2h5.6V26c-0.1-2.9-0.7-5.5-2.1-7.8
			s-3.2-4.3-5.6-5.6c-2.4-1.4-5-2.1-7.9-2.2H106V16H173.9z"/>
		<path d="M183.9,70.1v31.2c0,1.8-0.5,3.5-1.3,5c-0.9,1.5-2.1,2.8-3.6,3.6c-1.6,0.9-3.2,1.4-5.1,1.4H106v5.5h67.9
			c2.9,0,5.5-0.7,7.9-2c2.4-1.5,4.2-3.3,5.6-5.7c1.4-2.3,2-5,2.1-7.8V70.1H183.9z"/>
		<path d="M93.2,16v-5.6h-68c-2.9,0.1-5.5,0.8-7.8,2.2c-2.4,1.3-4.3,3.3-5.6,5.6c-1.4,2.3-2.1,4.9-2.2,7.8v31.2h5.6V26
			c0-1.8,0.5-3.5,1.4-5c0.8-1.6,2-2.8,3.5-3.6c1.5-0.9,3.3-1.4,5.1-1.4H93.2z"/>
		<path d="M16.6,106.3c-0.9-1.5-1.4-3.2-1.4-5V70.1H9.6v31.2c0.1,2.8,0.8,5.5,2.2,7.8c1.3,2.4,3.2,4.2,5.6,5.7c2.3,1.3,4.9,2,7.8,2
			h68v-5.5h-68c-1.8,0-3.6-0.5-5.1-1.4C18.6,109.1,17.4,107.8,16.6,106.3z"/>
	</g>
	<g>
		<path d="M90.1,25.6h6.6V0.5h-6.6V25.6z"/>
	</g>
	<g>
		<path d="M101.6,25.1h6.6V0h-6.6V25.1z"/>
	</g>
	<g>
		<path d="M90.1,128.2h6.6v-25.1h-6.6V128.2z"/>
	</g>
	<g>
		<path d="M101.6,127.6h6.6v-25h-6.6V127.6z"/>
	</g>
	<g>
		<path d="M0.6,72.7h25v-6.5h-25V72.7z"/>
	</g>
	<g>
		<path d="M0,61.2h25.1v-6.6H0V61.2z"/>
	</g>
	<g>
		<path d="M174.9,72.7H200v-6.5h-25.1V72.7z"/>
	</g>
	<g>
		<path d="M174.3,61.2h25.1v-6.6h-25.1V61.2z"/>
	</g>
</g>
</svg>
