<?xml version="1.0" encoding="utf-8"?>
<!-- Generator: Adobe Illustrator 13.0.1, SVG Export Plug-In . SVG Version: 6.00 Build 14948)  -->
<!DOCTYPE svg PUBLIC "-//W3C//DTD SVG 1.1//EN" "http://www.w3.org/Graphics/SVG/1.1/DTD/svg11.dtd">
<svg version="1.1" id="图层_1" xmlns="http://www.w3.org/2000/svg" xmlns:xlink="http://www.w3.org/1999/xlink" x="0px" y="0px"
	 width="200.008px" height="97.6px" viewBox="0 0 200.008 97.6" enable-background="new 0 0 200.008 97.6" xml:space="preserve">
	 
	 <rect id="bubblerect" stroke-width="0" x="35.458" y="18.084"  fill="none" stroke="#000000" width="115" height="45"/>
	 
<g>
	<g>
		<path fill="#FFFFFF" d="M199,41.3c-0.3-2.6-1.3-5-2.9-7c-1.5-2-3.4-3.7-5.6-5.2c-2.2-1.4-4.3-2.5-6.3-3.4c-2.1-0.9-3.9-1.6-5.3-2
			s-2.1-0.6-2.2-0.6c-2.7-4-6-7.1-9.9-9.2c-4-2.1-8.2-3.4-12.7-4.1c-4.5-0.6-9-0.7-13.4-0.5c-4.4,0.3-8.4,0.8-12,1.5
			c-3.7,0.8-6.6,1.5-8.8,2.1c-2.1,0.7-3.3,1-3.3,1c-6.1-3.8-12-6.8-17.8-8.8C93,3.2,87.5,1.9,82.3,1.3c-5.3-0.5-10-0.6-14.4-0.2
			c-4.4,0.3-8.1,0.8-11.4,1.6c-3.2,0.7-5.7,1.4-7.5,2.1c-1.7,0.6-2.6,1-2.6,1c-4.7,2.3-8.3,4.6-10.9,7c-2.5,2.5-4.3,4.8-5.4,7
			c-1,2.1-1.6,3.8-1.8,5.2c-0.2,1.3-0.2,2.1-0.2,2.1l-3,0.9c-5.3,2.1-9.5,4.4-12.5,6.7c-3,2.4-5.2,4.6-6.6,6.8
			c-1.3,2.1-2.1,4.1-2.4,5.8c-0.2,1.8-0.2,3.2-0.1,4.2c0.2,1.1,0.4,1.6,0.4,1.6c1.9,4.2,4.3,7.8,7.5,10.6c3.1,2.8,6.7,5,10.6,6.6
			c3.9,1.7,8,2.8,12.3,3.5c4.2,0.7,8.3,1.2,12.2,1.2c4,0.1,7.6,0,10.8-0.2c3.2-0.3,5.7-0.5,7.5-0.8c2-0.2,2.9-0.3,3-0.4
			c0.6,0.6,1.9,1.2,3.9,1.9c1.8,0.6,4.1,1.3,6.7,2c2.6,0.7,5.4,1.4,8.1,2c2.8,0.7,5.3,1.3,7.8,1.8c2.4,0.5,4.3,0.9,5.8,1.3
			c1.5,0.3,2.2,0.4,2.3,0.4c2.4,0.7,4,1.7,4.9,2.9c1,1.3,1.5,2.6,1.7,4.1c0.2,1.4,0.1,2.6-0.2,3.6c-0.1,1-0.2,1.5-0.3,1.6
			c2.7-2.9,4.5-5.6,5.5-8.2c1.1-2.6,1.6-4.9,1.6-7c0.1-2-0.1-3.5-0.4-4.7c-0.4-1.1-0.6-1.8-0.6-1.8c6.3,0.9,11.7,1.2,16.2,1.1
			c4.4-0.2,8.1-0.7,11-1.5c2.8-0.8,5-1.7,6.6-2.7c1.7-1,2.8-1.9,3.4-2.6c0.6-0.8,1-1.1,0.9-1.2c7.1,0,13.2-0.6,18.3-1.6
			c5.1-1.1,9.3-2.4,12.8-4c3.4-1.7,6-3.3,8-4.9s3.4-3,4.2-4c0.8-1.1,1.3-1.6,1.2-1.7C198.8,47.1,199.3,44,199,41.3z"/>
	</g>
	<g>
		<path d="M180,23.6c-1.4-0.4-2.2-0.5-2.2-0.5c-3.5-3.8-6.6-6.5-9.4-8.5c-2.7-1.9-4.9-3.2-6.6-3.8c-1.6-0.7-2.4-1-2.5-0.9
			c-3.1-1-6.4-1.6-9.7-1.8c-3.5-0.3-6.8-0.2-10.1,0c-3.2,0.3-6.2,0.7-8.8,1.2c-2.7,0.4-4.8,0.8-6.4,1.2c-1.5,0.3-2.3,0.6-2.3,0.6
			l-4.5,1.3c-3.2-1.8-6.8-3.8-11.1-5.6c-4.2-1.9-8.8-3.5-13.6-4.8c-5-1.2-10-1.9-15-2c-7.2,0.1-13.8,0.7-20,2.1
			c-6.2,1.3-11.7,3.2-16.3,5.6c-4.7,2.4-8.4,5.2-11,8.4s-4,6.6-4.1,10.2c0,0.2,0,0.4,0,0.5c-5.3,1.6-9.8,3.5-13.8,5.8
			c-3.9,2.4-7.1,5-9.2,8c-2.3,2.9-3.3,6-3.4,9.3c0.1,3.7,1.4,7.1,4,10.2c2.7,3.2,6.4,6,11,8.4c4.7,2.5,10.1,4.3,16.3,5.7
			c6.2,1.3,12.8,2,20,2c5.7,0,11.2-0.5,16.4-1.3c0,0,0.8,0.3,2.6,0.8c1.7,0.6,4.1,1.3,7.2,2.3c3,0.9,6.5,1.8,10.3,2.9
			c4,1,8,2,12.4,2.9c2.9,0.7,5,1.6,6.3,2.7c1.2,1.2,1.9,2.3,2,3.6c0.1,1.2-0.1,2.5-0.6,3.6s-1,2-1.6,2.8c-0.5,0.6-0.7,1-0.8,1.1
			c2.5-0.9,4.4-2.2,6-4c1.5-1.7,2.7-3.7,3.5-5.7c0.8-2.1,1.4-4.1,1.8-6.1c0.3-1.8,0.5-3.4,0.5-4.6c0-1.3,0.1-2,0-2
			c0.1,0,1.2,0.3,3.3,0.6c2,0.4,4.7,0.7,8.1,0.9c3.4,0.1,7.1-0.1,11.1-0.7c0,0,0.6-0.1,1.6-0.3c1.1-0.1,2.3-0.5,3.8-0.9
			c1.4-0.5,2.8-1.1,4.1-2c1.2-0.8,2.1-1.8,2.5-3.2c0.1,0,1,0,2.8-0.1c1.7,0,4.1-0.2,7-0.5c2.9-0.3,6.1-0.7,9.6-1.3
			c3.4-0.7,6.9-1.6,10.3-2.7c3.4-1.2,6.6-2.7,9.4-4.5c2.9-1.9,5.1-4.1,6.8-6.8c1.6-2.6,2.4-5.7,2.3-9.2c-0.2-3.7-1.1-6.8-2.7-9.3
			c-1.5-2.6-3.4-4.6-5.5-6.2c-2.1-1.6-4.3-2.9-6.5-3.7C183.2,24.4,181.4,23.9,180,23.6z M163.5,13.5c2.4,1.3,4.7,2.8,6.9,4.6
			c2.2,1.7,4.2,3.7,6,5.8c0.1,0,0.5,0.1,1.4,0.3c1,0.2,2.2,0.6,3.6,1c1.5,0.4,3.2,1.1,4.9,1.9c1.6,0.8,3.3,1.8,4.9,3
			c2.1,1.8,3.9,3.9,5.2,6.1c1.4,2.4,1.9,4.8,1.7,7.4c-0.2,2.7-1.4,5.4-3.8,8.2c0,0.1-0.5,0.8-1.7,1.9c-1.2,1.2-3.3,2.6-6.3,4.1
			c-3.1,1.7-7.5,3.1-13,4.3c-5.6,1.3-12.9,2-21.6,2.3c0.1,0.1-0.3,0.4-1,1.2c-0.6,0.7-1.9,1.6-3.5,2.7c-1.7,1-4,1.9-7,2.8
			s-6.9,1.3-11.4,1.4c-4.6,0.2-10.2-0.3-16.7-1.3c0.1,0.1,0.4,0.6,0.9,1.6c0.6,1.1,1,2.5,1.3,4.2c0.4,1.8,0.4,3.9-0.1,6.2
			c-0.4,2.2-1.6,4.6-3.5,7.1c0,0,0-0.4,0-1.1c-0.1-0.8-0.3-1.6-0.6-2.7c-0.4-1-1-2-1.9-2.8c-1-1-2.4-1.6-4.1-2
			c-0.1,0-0.9-0.1-2.7-0.5c-1.7-0.3-4.1-0.9-7.1-1.6c-3.1-0.8-6.6-1.8-10.6-3c-4-1.3-8.4-2.8-12.9-4.5c0,0-0.5,0.1-1.2,0.1
			c-0.8,0.1-1.6,0.3-2.4,0.3c-0.9,0.2-1.5,0.2-1.9,0.3c-2.3,0.2-4.7,0.4-7,0.4c-2.3,0.1-4.7,0.1-7,0.1c-5.7-0.1-11.2-0.8-16.5-2.5
			c-5.4-1.6-10.4-3.9-15.2-6.7c-1.8-1.1-3.7-2.3-5.6-3.6c-1.9-1.4-3.6-2.9-5.2-4.7c-1.5-1.7-2.5-3.7-3.1-5.7c-0.5-2-0.4-4.3,0.3-6.7
			c1.2-3.2,2.9-5.7,5.3-7.8c2.4-2,5-3.5,8-4.7c2.9-1.1,6-2.1,9-2.6c0,0,0.1-0.7,0.3-1.9c0.2-1.3,0.8-2.8,1.7-4.8c1-2,2.5-4,4.6-6.2
			c2.1-2.1,5.1-4.2,9-6.1c3.9-2,8.7-3.5,14.8-4.7c6-1.3,13.3-1.8,22-1.8c0.1,0,0.9,0,2.6,0.2c1.6,0.2,3.8,0.6,6.5,1.1
			c2.7,0.5,5.7,1.2,8.9,2.3c3.1,1,6.3,2.4,9.4,4c3.1,1.7,5.8,3.7,8.2,6.1c0.1-0.1,1.3-0.6,3.5-1.4c2.4-0.8,5.4-1.8,9.3-2.8
			c3.8-1,8.1-1.7,12.7-2.1c4.8-0.4,9.5-0.2,14.4,0.6C158.7,11.3,161.1,12.3,163.5,13.5z"/>
	</g>
</g>
</svg>
