<?xml version="1.0" encoding="utf-8"?>
<!-- Generator: Adobe Illustrator 13.0.1, SVG Export Plug-In . SVG Version: 6.00 Build 14948)  -->
<!DOCTYPE svg PUBLIC "-//W3C//DTD SVG 1.1//EN" "http://www.w3.org/Graphics/SVG/1.1/DTD/svg11.dtd">
<svg version="1.1" id="图层_1" xmlns="http://www.w3.org/2000/svg" xmlns:xlink="http://www.w3.org/1999/xlink" x="0px" y="0px"
	 width="200px" height="146.8px" viewBox="0 0 200 146.8" enable-background="new 0 0 200 146.8" xml:space="preserve">
	 
	 <rect id="bubblerect" stroke-width="0" x="45.458" y="35.084"  fill="none" stroke="#000000" width="110.666" height="86.667"/> 
	 
<g>
	<g>
		<path fill="#FFFFFF" d="M193.1,49.5c-3.3-7-7.9-13.4-13.9-19.1c-6-5.8-13.1-10.8-21.3-15c-8.1-4.3-17.1-7.5-26.9-9.9
			C121.3,3.2,110.9,2,100,2C89.2,2,78.8,3.2,69,5.5c-9.7,2.4-18.7,5.6-26.9,9.9c-8.1,4.2-15.2,9.2-21.2,15c-6,5.7-10.6,12.1-13.9,19
			c-3.4,6.9-5,14.2-5,21.9s1.6,15,5,22c3.3,6.9,7.9,13.2,13.9,19c6,5.7,13.1,10.7,21.2,15c8.2,4.2,17.2,7.5,26.9,9.8
			c9.8,2.4,20.2,3.5,31,3.5c7.6,0,14.9-0.6,22-1.7c4.6,1.7,10.2,3.2,16.7,4.6c3.7,0.8,7.6,1.2,11.7,1.3c4.2,0.2,8.3,0,12.3-0.5
			c4.1-0.6,8-1.5,11.6-2.8c3.6-1.2,7-2.8,9.9-4.9c-5.2-1.7-9.8-3.5-13.9-5.2c-4-1.7-7.7-3.3-10.9-5c7.9-4.2,14.8-9.2,20.5-14.9
			c5.8-5.7,10.3-11.9,13.4-18.7c3.1-6.8,4.8-14,4.8-21.5C198.1,63.6,196.4,56.3,193.1,49.5z"/>
	</g>
	<g>
		<path d="M186.2,35.1c-4.4-5.3-9.7-10.1-15.8-14.4c-6-4.2-12.7-8-20.1-11.1c-7.5-3-15.4-5.4-23.8-7.1C118,0.9,109.2,0.1,100,0
			c-9.2,0.1-18,0.9-26.5,2.5c-8.4,1.7-16.3,4.1-23.7,7.1c-7.4,3.1-14.2,6.8-20.2,11.1c-6.1,4.3-11.3,9.1-15.7,14.4
			C9.4,40.4,6,46.1,3.6,52.2C1.3,58.3,0.1,64.6,0,71.3c0.1,6.7,1.3,13,3.6,19.1c2.4,6.1,5.8,11.9,10.3,17.1
			c4.4,5.3,9.6,10.2,15.7,14.4c6,4.3,12.8,8,20.2,11c7.4,3.1,15.3,5.5,23.7,7.1c8.5,1.7,17.3,2.5,26.5,2.6
			c7.5-0.1,14.7-0.6,21.8-1.8c4.6,1.7,10.1,3.2,16.5,4.5c4.6,1,9.5,1.5,14.7,1.5c3.9,0,7.8-0.3,11.7-0.9c3.8-0.6,7.5-1.6,11-2.8
			c3.5-1.3,6.7-2.9,9.6-4.9l3-2.2l-3.5-1.2c-8.5-2.9-15.5-5.8-21.2-8.4c7.3-4.4,13.8-9.4,19.2-15.1c5.5-5.7,9.7-11.9,12.6-18.6
			c3-6.8,4.5-13.9,4.6-21.4c-0.1-6.7-1.2-13-3.7-19.1C193.9,46.1,190.6,40.4,186.2,35.1z M168.2,23.8c5.9,4.2,10.9,8.7,15,13.7
			c4.1,5,7.3,10.4,9.6,16.1c2.2,5.7,3.3,11.5,3.4,17.7c-0.1,7.2-1.6,14.1-4.7,20.7c-3.1,6.5-7.3,12.6-13,18.2
			c-5.6,5.5-12.2,10.3-20,14.5l-3.2,1.8l3.3,1.7c5.5,2.8,12.6,5.8,21.1,8.9c-3.8,1.9-7.9,3.4-12.5,4.4c-4.6,1-9.4,1.4-14.2,1.4
			s-9.6-0.4-14-1.4c-6.3-1.2-11.8-2.8-16.4-4.5l-0.5-0.1l-0.5,0.1c-6.9,1.1-14.1,1.7-21.6,1.7c-9,0-17.5-0.8-25.7-2.5
			c-8.2-1.6-15.9-3.8-23-6.8c-7.2-3-13.7-6.5-19.5-10.7c-5.9-4-10.9-8.6-15-13.7c-4.1-5-7.3-10.3-9.5-16C5,83.3,3.9,77.5,3.9,71.3
			s1.1-12,3.4-17.7c2.2-5.7,5.4-11.1,9.5-16.1c4.1-5,9.1-9.5,15-13.7c5.8-4.1,12.3-7.6,19.5-10.6c7.1-2.9,14.8-5.2,23-6.8
			C82.5,4.7,91,4,100,4s17.5,0.7,25.7,2.4c8.2,1.6,15.9,3.9,23.1,6.8C155.9,16.2,162.4,19.7,168.2,23.8z"/>
	</g>
</g>
</svg>
