<?xml version="1.0" encoding="utf-8"?>
<!-- Generator: Adobe Illustrator 13.0.1, SVG Export Plug-In . SVG Version: 6.00 Build 14948)  -->
<!DOCTYPE svg PUBLIC "-//W3C//DTD SVG 1.1//EN" "http://www.w3.org/Graphics/SVG/1.1/DTD/svg11.dtd">
<svg version="1.1" id="图层_1" xmlns="http://www.w3.org/2000/svg" xmlns:xlink="http://www.w3.org/1999/xlink" x="0px" y="0px"
	 width="196.311px" height="199.018px" viewBox="0 0 196.311 199.018" enable-background="new 0 0 196.311 199.018"
	 xml:space="preserve">
	 
	 <rect id="bubblerect" stroke-width="0" x="50.458" y="70.084"  fill="none" stroke="#000000" width="100.666" height="72.667"/>
	 
<g>
	<g>
		<path fill="#FFFFFF" d="M179.611,13.098c-2.9-3.1-6.4-5.7-10.5-7.7c-4.2-2.1-9-3.3-14.5-3.8c-5.6-0.4-11.9,0.2-19.2,2
			c0,0-1,0.3-2.7,1c-1.9,0.6-4.3,1.6-7.2,3c-3,1.4-6.2,3.2-9.7,5.6c-3.4,2.2-6.7,5-10,8.4c-3.3,3.2-6.3,7.1-8.8,11.6
			s-4.2,9.5-5.3,15.2c-1.1,5.8-1.2,12.2-0.1,19.2c-0.1,0-0.9-0.6-2.6-1.7c-1.8-1.1-4.2-2.5-7.3-4.1c-3.2-1.6-6.9-3.1-11-4.6
			c-4.2-1.5-8.7-2.8-13.6-3.6c-4.8-0.9-9.8-1.3-15.1-0.9c-5.2,0.3-10.5,1.5-15.7,3.6c-5.3,2-10.4,5.3-15.4,9.8c0,0-0.5,0.5-1.4,1.5
			c-0.8,1-1.9,2.5-3,4.4c-1.2,1.9-2.2,4.4-3.1,7.3c-0.9,3-1.3,6.4-1.3,10.2s0.7,8.1,2.1,12.8c1.4,4.7,3.8,9.9,7.2,15.5
			c3.4,5.5,8.1,11.5,14,18c0.1,0.1,1.5,1.1,4.5,3.2c3,2,7.1,4.6,12.4,8c5.2,3.4,11.5,7,18.7,11s15.1,8,23.7,12
			c8.6,4,17.6,7.6,27.1,10.9c9.5,3.3,19.2,5.9,29,7.8c9.9,2,19.8,2.9,29.5,2.8c0,0-0.5-1.3-1.2-4c-0.8-2.6-1.7-6.1-2.7-10.6
			s-1.8-9.5-2.5-15.2c-0.6-5.6-0.9-11.5-0.7-17.5c0.1-6.1,1-12,2.5-17.7c1.6-5.8,4.1-11.1,7.5-15.8c0.1-0.1,0.6-1.2,1.7-3.2
			c1.2-2,2.7-4.9,4.4-8.5c1.8-3.6,3.5-7.7,5.5-12.3c1.9-4.7,3.6-9.5,5.1-14.7c1.6-5.1,2.8-10.3,3.5-15.6c0.8-5.2,0.9-10.2,0.4-14.9
			c0.1-0.1-0.1-1-0.5-2.8c-0.5-1.8-1.1-4.1-2.2-7c-1-2.9-2.5-6-4.3-9.3C184.911,19.198,182.511,16.098,179.611,13.098z"/>
	</g>
	<g>
		<path d="M179.311,9.897c-4-3-8.3-5.3-13-7c-4.7-1.6-9.5-2.6-14.5-2.8c-5-0.3-10,0.1-14.9,1.1c-7.1,1.6-13.8,4.2-19.9,7.7
			c-6.2,3.5-11.5,7.9-16.2,13.3c-4.5,5.2-8.1,11.4-10.8,18.2c-1,2.9-2,6.1-2.9,9.5c-0.8,3.4-1.3,6.7-1.3,9.8c-0.1,0-1-0.5-2.6-1.5
			c-1.7-1-4.1-2.1-7.2-3.5c-3-1.3-6.5-2.5-10.5-3.6c-4.1-1.1-8.5-1.8-13.2-2.2c-4.8-0.2-9.6,0.2-14.7,1.2c-5,1.1-10.1,3.1-15.2,6.1
			c-5,3-9.8,7.2-14.6,12.7c-2.8,3.4-4.8,7.1-6.1,11.2c-1.2,4.1-1.8,8.2-1.7,12.5c0.1,4.3,0.8,8.5,2,12.6c1.1,4.2,2.7,8.1,4.7,11.8
			c2.9,5.1,6.2,9.7,9.9,13.7c3.8,4.1,7.8,7.9,12.3,11.3c4.4,3.5,9,6.9,13.7,10.2c0.1,0,1.4,0.9,4.2,2.7c2.7,1.7,6.5,4.1,11.6,7
			c5,2.9,11,6,18,9.5c7.1,3.4,14.9,6.8,23.5,10.2c8.7,3.3,18,6.4,27.9,9.1c10,2.8,20.4,4.9,31.4,6.4c10.8,1.6,22,2.2,33.6,1.8
			c-0.3,0-1.1-0.2-2.5-0.6c-1.6-0.4-3.6-1.3-6.1-2.7c-2.4-1.3-4.9-3.3-7.4-5.9c-2.6-2.6-4.8-6.1-6.7-10.5c-1.9-4.3-3.2-9.8-3.7-16.3
			c-0.6-6.5-0.1-14.4,1.4-23.4c1.2-6.6,2.9-13,5.1-19.3c2.3-6.2,4.7-12.4,7.3-18.5c2.6-6.2,5.1-12.3,7.6-18.5
			c2.4-6.1,4.4-12.4,6-18.8c1.5-6.3,2.4-12.9,2.5-19.7c0-4.2-0.7-8.5-2.1-12.9c-1.5-4.3-3.4-8.4-6-12.2
			C185.711,15.698,182.711,12.598,179.311,9.897z M182.411,17.598c1.5,2.1,2.7,3.7,3.4,5.1c0.6,1.3,1,2,1,2c2.2,4.2,3.5,8.9,3.9,14
			c0.4,5.2,0.1,10.6-0.9,16.3s-2.4,11.2-4.1,16.8c-1.9,5.6-3.8,10.9-5.9,15.9c-2.1,5-4.1,9.4-6.1,13.3c-1.9,3.8-3.5,6.9-4.8,9.1
			c-1.2,2.2-1.8,3.4-1.9,3.4c-3.6,8.7-6.2,16.5-7.9,23.5c-1.7,7-2.5,13.1-2.8,18.6c-0.2,5.4,0,10.1,0.8,14.1
			c0.6,3.9,1.5,7.2,2.5,9.7c1,2.6,1.8,4.5,2.7,5.7c0.8,1.3,1.2,1.9,1.3,1.9c-12.9-1.2-25-3.1-36.3-5.8c-11.4-2.8-21.9-6-31.5-9.6
			c-9.5-3.7-18.1-7.4-25.7-11.2c-7.6-3.9-14-7.4-19.3-10.7c-5.3-3.2-9.3-5.9-12.2-8c-2.7-2-4.1-3.1-4.1-3.1
			c-6.9-5.9-12.5-11.4-16.7-16.6c-4.3-5.3-7.4-10.3-9.5-15c-2.1-4.6-3.3-8.9-3.8-12.8c-0.5-4-0.3-7.7,0.3-11c0.7-3.2,1.7-6.1,3-8.6
			c1.3-2.6,2.6-4.7,4-6.4c1.4-1.7,2.6-3,3.5-3.9c1-0.9,1.5-1.3,1.5-1.3c4.7-3.4,9.7-5.6,15-6.7c5.3-1,10.6-1.2,16-0.6
			c5.3,0.6,10.3,1.7,15.2,3.3c4.8,1.6,9.2,3.2,13,5c3.7,1.8,6.7,3.3,8.9,4.6c2.1,1.3,3.3,2,3.4,2l8.5,5.9
			c-1.2-8.3-1.4-15.8-0.6-22.3c0.8-6.6,2.3-12.4,4.5-17.4c2.1-4.9,4.8-9.2,7.8-12.7c3-3.7,6.1-6.7,9.3-9c3.1-2.4,6.1-4.3,8.9-5.7
			c2.7-1.3,5-2.3,6.6-2.9c1.8-0.6,2.6-0.9,2.7-0.8c6.6-1.6,12.4-2.3,17.5-2c5.1,0.2,9.5,1.1,13.3,2.5c3.7,1.5,6.9,3.3,9.5,5.4
			C178.811,13.598,180.811,15.598,182.411,17.598z"/>
	</g>
</g>
</svg>
