<?xml version="1.0" encoding="utf-8"?>
<!-- Generator: Adobe Illustrator 13.0.1, SVG Export Plug-In . SVG Version: 6.00 Build 14948)  -->
<!DOCTYPE svg PUBLIC "-//W3C//DTD SVG 1.1//EN" "http://www.w3.org/Graphics/SVG/1.1/DTD/svg11.dtd">
<svg version="1.1" id="图层_1" xmlns="http://www.w3.org/2000/svg" xmlns:xlink="http://www.w3.org/1999/xlink" x="0px" y="0px"
	 width="200px" height="138.3px" viewBox="0 0 200 138.3" enable-background="new 0 0 200 138.3" xml:space="preserve">
	 
	 <rect id="bubblerect" stroke-width="0" x="58.458" y="48.084"  fill="none" stroke="#000000" width="80.666" height="45.667"/>
	 
<g>
	<g>
		<path fill="#FFFFFF" d="M150.8,49.3l12-27.8l-46.2,23.1L100.4,2.2L83.1,42L41.4,20l7.9,31.6h-43l39.2,20.2L10.1,82.2l30.1,10
			l-15.1,22.1l-2.2,1.5l41.6-10.7l-4.4,30.5l31.4-14.2l13.3,16.2l17.3-21.1l30.3,12.4l-12.7-26.3l40.6,9.7l-19.8-24.1l36.2-12.4
			l-31.9-10.1l29.5-18.4L150.8,49.3z"/>
	</g>
	<g>
		<path d="M200,76.1l-35.2-10.4L197.9,47l-42.6,2.3l9-29.2l-46.7,22.5L100.6,0L81.8,40.3l-42.3-23l8.6,31.1L2.5,50.5l39.9,21L0,81.3
			l37.3,13.5l-17.2,23.1l42.8-9.8l-3.7,29l32.3-13.7l13.4,14.9l15.3-18.9l35.1,11.9l-13.9-26.6l43.9,12.6l-22.4-28.5L200,76.1z
			 M163,65.7l30.8,10.1l-38.1,11.5l21.8,23.2l-45.7-15l19.5,31.8l-33.1-16.7l-13.1,26.2l-12.6-20.9l-30.9,17.4l4.7-31.5l-39.5,12.5
			l16.6-23.6l-31.8-9.4l38.8-8.8l-42-20.7l47.4,3.3L41.5,19.9l43,25.6l15.9-43.3l14.8,45.4l46.1-25.4l-15.4,30.9l46.4-5L163,65.7z"
			/>
	</g>
</g>
</svg>
