<?xml version="1.0" encoding="utf-8"?>
<!-- Generator: Adobe Illustrator 13.0.1, SVG Export Plug-In . SVG Version: 6.00 Build 14948)  -->
<!DOCTYPE svg PUBLIC "-//W3C//DTD SVG 1.1//EN" "http://www.w3.org/Graphics/SVG/1.1/DTD/svg11.dtd">
<svg version="1.1" id="图层_1" xmlns="http://www.w3.org/2000/svg" xmlns:xlink="http://www.w3.org/1999/xlink" x="0px" y="0px"
	 width="173.376px" height="199.824px" viewBox="0 0 173.376 199.824" enable-background="new 0 0 173.376 199.824"
	 xml:space="preserve">
	 
	 <rect id="bubblerect" stroke-width="0" x="20.458" y="15.084"  fill="none" stroke="#000000" width="130.666" height="110.667"/>
	 
<g>
	<g>
		<path fill="#FFFFFF" d="M168.573,50.824c0.9-2,1.3-3.9,1.1-5.9c-0.3-1.9-0.8-3.7-1.5-5.2c-0.8-1.6-1.5-2.7-2.3-3.7
			c-0.6-0.9-1.1-1.4-1.1-1.4c0.5-5.9,0.4-10.5-0.5-13.9c-0.8-3.4-2-5.9-3.6-7.5c-1.7-1.5-3.5-2.4-5.5-2.7c-2-0.2-3.9-0.1-5.8,0.2
			c-1.8,0.5-3.3,0.9-4.6,1.5c-1.1,0.5-1.7,0.8-1.8,0.8c-1.3-2.4-2.9-4.1-4.7-5.2c-1.7-1-3.5-1.6-5.4-1.6c-1.8-0.1-3.5,0.2-5.1,0.7
			c-1.5,0.4-2.8,0.9-3.8,1.3c-0.9,0.5-1.4,0.8-1.5,0.8c-2.8-2.4-5.3-4.1-7.4-5c-2.2-0.9-4.1-1.3-5.7-1.1c-1.6,0.1-2.8,0.5-3.8,1.1
			c-1.1,0.7-1.8,1.3-2.3,1.9s-0.7,1-0.7,1c-1.8-1.8-3.6-2.9-5.6-3.4c-2-0.6-4-0.7-6-0.5c-2,0.4-3.7,0.8-5.4,1.5
			c-1.6,0.6-2.9,1.2-3.9,1.8c-1,0.6-1.5,0.8-1.5,0.9c-3.2-2.2-5.9-3.7-8.2-4.3c-2.4-0.6-4.3-0.7-6-0.3c-1.5,0.4-2.9,1-3.8,1.9
			c-0.9,0.8-1.7,1.6-2.1,2.4c-0.4,0.7-0.6,1.1-0.6,1.1l-5-1c-3-0.9-5.7-1.3-8.2-0.9c-2.4,0.4-4.7,1-6.5,2.1
			c-1.9,1.1-3.5,2.3-4.8,3.5c-1.4,1.3-2.4,2.4-3,3.3c-0.6,1-1,1.5-1,1.5c-1.6-1.3-3.4-2.3-5.4-2.8s-3.8-0.7-5.5-0.7
			c-1.8,0-3.2,0-4.3,0.2c-1.2,0.2-1.7,0.3-1.8,0.3c-3.9,1.6-6.8,3.5-8.5,5.7c-1.8,2.2-2.7,4.4-2.9,6.8c-0.1,2.5,0.2,4.8,0.9,7.1
			c0.8,2.3,1.8,4.4,3,6.3c1.2,1.8,2.3,3.3,3.2,4.5c0.9,1.1,1.4,1.6,1.4,1.7c-1.3,2.6-2.3,4.9-2.8,6.9c-0.6,1.9-1,3.4-1,4.4
			c0,1.1-0.1,1.6,0,1.6c-0.1,1.7,0.1,3.5,0.6,5.3s1.2,3.6,1.9,5.2c0.6,1.5,1.3,2.8,1.9,3.8c0.5,1,0.7,1.5,0.8,1.6
			c-2.7,1.6-4.9,3.1-6.4,4.7c-1.5,1.5-2.6,2.9-3.1,4.2c-0.6,1.3-1,2.4-1.1,3.2c-0.1,0.7-0.1,1.1-0.1,1.2c0,2.4,0.4,4.9,1.3,7.3
			c1.1,2.3,2.2,4.5,3.6,6.4c1.3,1.9,2.6,3.4,3.6,4.6c1.1,1.1,1.6,1.7,1.6,1.8l-3.7,6.9c-0.7,2.8-0.9,5.3-0.5,7.3
			c0.4,2.1,1.1,3.8,2.1,5.3c1.1,1.3,2.1,2.5,3.4,3.3c1.1,0.9,2.2,1.4,3,1.7c0.9,0.4,1.3,0.6,1.4,0.6l1.3,1.3l2,9.6
			c0.7,2.1,1.9,3.5,3.7,4c1.7,0.5,3.7,0.4,6-0.2c2.2-0.6,4.4-1.4,6.5-2.4c2.2-1.1,3.9-2,5.3-2.9c1.4-0.9,2.1-1.3,2.1-1.4l1,2.1
			c1,3.8,2.5,6.7,4.4,8.5c1.8,1.9,3.9,3,6.1,3.3c2.4,0.4,4.6,0.3,7-0.3c2.3-0.5,4.5-1.2,6.4-2.2c1.9-1,3.6-1.8,4.8-2.5
			c1.1-0.9,1.8-1.3,1.8-1.3c2.5,2.7,5.2,4.3,8,5.1c2.8,0.7,5.5,0.8,8.2,0.4c2.6-0.5,5-1.2,7.1-2.2c2.2-1.1,4-2,5.2-2.9
			c1.3-0.9,2-1.4,2-1.4l-3.5,9c0.1,5.5,0.8,10.3,2.1,14.6c1.4,4.3,3.1,7.9,5.1,11c2.1,3,4.1,5.6,6.1,7.6c2,1.9,3.7,3.4,5,4.4
			c1.4,0.9,2.2,1.4,2.2,1.4c-3.4-5.8-5.9-11.1-7.3-15.8c-1.4-4.8-2.1-9.1-2.2-12.8c0-3.6,0.3-6.7,0.9-9.2c0.7-2.5,1.3-4.4,2-5.8
			c0.7-1.2,1.1-1.9,1.1-1.9c3.3,0.9,6.3,1.3,9,0.8c2.6-0.3,4.9-1.1,7-2.3c2.1-1.1,3.8-2.3,5.2-3.7c1.3-1.4,2.4-2.5,3.1-3.5
			c0.6-1,1-1.5,1-1.5l10.7,2.7c3.8-1.1,6.7-2.5,8.4-4.3c1.9-1.9,2.9-3.8,3.3-5.9c0.4-2.2,0.4-4.2,0-6.1c-0.4-1.9-0.9-3.4-1.4-4.7
			c-0.6-1.2-0.9-1.9-1-1.9c2.5-1.9,4.3-3.8,5.3-5.6c1.1-1.9,1.7-3.6,1.9-5.2c0.2-1.7,0.1-3-0.2-4.3c-0.4-1.2-0.7-2.2-1.1-2.9
			c-0.4-0.8-0.6-1.1-0.7-1.1c1.8-2.5,2.8-4.8,3.2-6.9c0.4-2.1,0.3-4-0.2-5.6c-0.4-1.7-1.2-3-2-4.2s-1.7-2-2.3-2.6
			c-0.8-0.6-1.1-0.9-1.1-0.9c2.1-3.9,3.5-7.3,3.9-10c0.4-2.8,0.4-5.1-0.2-6.8c-0.6-1.9-1.5-3.3-2.5-4.3c-1.1-1-2.1-1.7-3-2.1
			c-0.8-0.4-1.2-0.6-1.3-0.6C165.772,54.724,167.573,52.824,168.573,50.824z"/>
	</g>
	<g>
		<path d="M164.772,34.624c2-2.8,3.1-6.1,3.2-9.7c-0.1-3.2-0.8-6.1-2.4-8.7c-1.7-2.5-3.8-4.6-6.5-6.1c-2.7-1.6-5.7-2.3-9-2.4
			c-2.8,0.1-5.3,0.6-7.5,1.6c-1.6-2.2-3.3-3.6-5.3-4.3c-2-0.7-4-1-5.9-0.9c-2,0.2-3.6,0.4-4.8,0.8c-1.3,0.4-1.9,0.6-1.9,0.6
			c-2.6-2.3-4.9-3.8-7.1-4.6c-2.3-0.8-4.3-1-6-0.9c-1.8,0.2-3.4,0.7-4.7,1.4c-1.3,0.6-2.3,1.3-3,1.9c-0.7,0.7-1.1,0.9-1.1,1
			c-2.3-1.8-4.6-3-6.9-3.3c-2.2-0.4-4.2-0.4-6.2,0.2c-1.9,0.5-3.5,1.3-5,2.3c-1.4,0.9-2.5,1.7-3.4,2.5c-0.8,0.7-1.1,1.1-1.1,1.2
			c-3.2-2.7-6-4.5-8.4-5.4c-2.5-0.8-4.6-1.2-6.3-0.8c-1.9,0.2-3.3,0.9-4.5,1.7c-1.1,0.8-2,1.7-2.5,2.4c-0.5,0.8-0.9,1.3-0.9,1.3
			c-3.4-1.4-6.6-2-9.3-2c-2.8,0.1-5.3,0.6-7.4,1.5c-2.1,1-3.9,2.1-5.4,3.3c-1.5,1.3-2.6,2.5-3.5,3.7c-3-2.1-6.5-3.2-10.4-3.2
			c-2.7,0-5.5,0.7-8,1.9c-2.7,1.3-4.9,2.9-6.8,5c-2,2.2-3.3,4.5-4.1,7.1c-0.7,2.9-0.8,5.7-0.2,8.3c0.6,2.5,1.7,5,3.3,7.2
			c1.5,2.3,3.3,4.4,5.3,6.4c-2.5,2.3-4.3,4.6-5.1,7.1c-0.8,2.4-1,4.9-0.7,7.3c0.2,2.5,0.8,4.6,1.7,6.6c0.8,2,1.6,3.6,2.3,4.8
			c0.8,1.1,1.2,1.7,1.3,1.8c-0.1,0-0.3,0.3-0.9,0.7c-0.5,0.4-1.3,1-2,1.6c-0.7,0.6-1.5,1.2-2.2,1.7c-0.6,0.6-1,0.9-1.3,1.1
			c-2.2,2-3.5,4.3-3.9,7c-0.5,2.7-0.3,5.5,0.5,8.3c0.8,2.9,1.8,5.4,3.2,7.7c0.6,1.1,1.3,2,2.1,2.7c0.7,0.8,1.4,1.5,2,2.1
			c0.6,0.7,0.8,1.4,0.8,2.2c0.1,0.8-0.3,1.8-1.2,3c-1.4,1.8-2.2,3.8-2.4,5.8c-0.3,2.1,0,4.4,1,6.7c0.5,1.3,1.2,2.6,2,3.8
			c0.9,1.3,1.6,2.2,2.4,3c1.4,1.2,2.6,2.2,3.6,2.6c1.1,0.4,1.8,0.6,2.3,0.7c0.6,0,0.8,0,0.9-0.1c-0.2,4.6,0.1,8.1,1.3,10.4
			c1.1,2.3,2.6,3.7,4.6,4.4c1.9,0.6,4,0.7,6.2,0.2c2.3-0.5,4.5-1.2,6.5-2.1c2.1-1,3.8-1.9,5.1-2.7c1.3-0.8,2-1.2,2.1-1.3
			c0,0.1,0.2,0.5,0.5,1.2c0.3,0.9,0.7,1.8,1.2,2.9c0.5,1,1,2,1.4,3c0.4,0.9,0.6,1.4,0.7,1.6c1.2,2.1,2.4,3.5,4,4.3
			c1.5,0.7,3.4,1.1,5.5,1c3.2-0.2,6.3-0.9,9.3-2.3s5.7-3,8.1-5c0.1,0.1,0.3,0.4,0.9,1.1c0.5,0.8,1.1,1.5,1.9,2.4
			c0.9,0.9,1.7,1.8,2.5,2.4c1.8,1.3,3.6,2.1,5.5,2.4c2,0.3,4,0.2,6.1-0.3c2.6-0.6,5.1-1.8,7.3-3.4c2.1-1.5,4.2-3.2,6.1-5.1
			c-1.1,1.2-2,2.7-2.5,4.4c-0.4,1.9-0.6,3.6-0.7,5.4c0,1.8,0,3.3,0.1,4.5c0.1,1.2,0.2,1.8,0.3,1.9c0.8,5,2.2,9.3,4,13
			c1.8,3.7,3.9,6.8,6.3,9.4c2.3,2.5,4.7,4.6,7.1,6.3s4.7,2.9,6.8,3.8c2,0.9,3.7,1.5,5,1.9c0.4,0.1,0.7,0.2,1,0.3
			c-0.6-0.3-1.3-0.6-1.8-0.9c-0.8-0.6-1.6-1.2-2.4-2c-0.7-0.7-1.4-1.5-2-2.3c-2.4-2.7-4.3-5.7-5.8-9.2c-1.5-3.3-2.6-6.9-3.4-10.5
			c-0.7-3.7-0.8-7.3-0.5-11.1c0.1-0.6,0.3-1.5,0.4-2.7c0.1-1.2,0.4-2.3,0.6-3.6c0.3-1.2,0.6-2.4,1-3.4c0.5-1.1,1-1.8,1.5-2.2
			c2.9,0.3,5.5,0.4,8.1,0.4c2.5,0,4.8-0.4,6.9-1.1c2-0.8,3.8-2,5.3-3.9c1.6-1.8,2.7-4.3,3.7-7.5c0,0.1,0.4,0.5,1.1,1.1
			c0.8,0.6,1.9,1.3,3.3,1.9c1.5,0.6,3.1,1,5,1.1c1.8,0.1,3.7-0.2,5.9-1.1c3.1-1.3,5.2-2.9,6.3-4.8c1.3-1.8,1.9-3.8,2.1-6
			c0.2-2.1,0.1-4.2-0.1-6.4c-0.1-0.1-0.1-0.6-0.1-1.2s0-1.4-0.1-2.1c0-0.8,0-1.5,0-2c-0.1-0.6-0.1-0.9-0.1-1
			c0.3-0.3,0.7-0.8,1.2-1.2c1.5-1.6,2.7-3.6,3.6-6c1-2.3,1.4-4.6,1.2-7c-0.2-2.3-1.1-4.5-2.8-6.3c0.6-1,1.2-1.8,1.8-2.8
			c0.7-0.9,1.1-1.9,1.5-2.9c0.3-1,0.4-2.1,0.2-3.3c-0.2-1.7-0.7-3.1-1.5-4.2c-0.7-1.1-1.6-2.1-2.6-3c-1.1-0.8-2.1-1.5-3.1-2.3
			c0.1,0.1,0.4-0.2,0.9-0.8c0.4-0.7,1-1.4,1.7-2.3c0.6-0.8,1.1-1.6,1.6-2.4c0.4-0.7,0.7-1.2,0.8-1.3c1.3-2.6,2-5,1.8-7.3
			c-0.1-2.2-0.5-4.2-1.3-6c-0.8-1.7-1.7-3.1-2.4-4c-0.9-1-1.3-1.5-1.3-1.5l0.9-1.7c1.3-3.1,2-5.8,2-7.9c0.1-2.1-0.1-3.9-0.8-5.2
			c-0.6-1.4-1.4-2.4-2.4-3.3C166.673,35.824,165.673,35.124,164.772,34.624z M164.073,25.224c0.1,1.5-0.1,3.4-0.4,5.5
			c-0.4,2.3-1.3,4.4-2.6,6.6c0.1,0,0.4,0.1,1.1,0.2c0.7,0.2,1.5,0.6,2.5,1c0.9,0.5,1.6,1.2,2.3,2.1c0.7,0.9,0.9,2.1,0.9,3.5
			c-0.1,1.4-0.7,3.1-2,5.2c-1.1,2.1-3.2,4.4-6.1,7.2c0.1,0,0.5,0.1,1.3,0.4c0.8,0.2,1.7,0.6,2.8,1.1c1.2,0.6,2.3,1.5,3.2,2.5
			c1,1.1,1.7,2.5,2,4.1c0.3,1.7,0.2,3.8-0.4,6.1c-0.7,2.3-2.1,5.1-4.3,8.3c-0.6,0.7-1.1,1.3-1.6,1.7c0.3-0.1,0.8-0.1,1.5,0.3
			c0.9,0.2,1.8,0.8,2.7,1.6c1,0.8,1.9,1.8,2.7,3c0.8,1.6,1.2,3,1.3,4.2c0.1,1.3-0.2,2.4-0.7,3.5c-0.5,1-1,2-1.6,2.9
			c-0.8,1.1-1.5,2.2-2.4,3.3c0.3-0.4,0.8-0.2,1.3,0.5c0.6,0.7,1.1,1.7,1.6,3c0.4,1.2,0.6,2.5,0.6,4c-0.2,2.5-0.6,4.5-1.3,6
			c-0.6,1.4-1.3,2.6-2.2,3.5c-0.9,1-1.9,2-3,3.1c0,0,0.1,0.5,0.3,1.4c0.1,1,0.3,2.1,0.5,3.4c0.2,1.2,0.4,2.4,0.6,3.6
			c0.1,1.1,0.1,1.8,0.1,2.3c0.1,2.6-0.7,4.7-2.2,6.2c-1.6,1.5-4,2.5-7.4,3.2c-1,0.1-2.4,0.1-3.9-0.1c-1.5-0.3-3.1-0.6-4.6-1.1
			c-1.5-0.6-2.8-1.2-3.8-1.8c-0.9-0.8-1.4-1.5-1.3-2.2c-0.5,4.3-1.9,7.7-4.3,9.9c-2.3,2.3-5.1,3.6-8.5,4c-3.5,0.5-7,0.1-10.8-0.9
			c0,0-0.4,0.5-1.1,1.5c-0.6,0.9-1.4,2.4-2.3,4.3c-0.8,1.8-1.6,4-2.1,6.6c-0.7,2.6-0.8,5.6-0.7,8.8c0.2,3.3,1,6.8,2.3,10.7
			c1.4,3.8,3.6,7.8,6.7,12.1c-0.1,0-0.7-0.5-1.8-1.5c-1.2-1-2.5-2.4-4.2-4.2c-1.6-1.9-3.1-4.1-4.6-6.7c-1.5-2.7-2.6-5.7-3.4-9.1
			c-0.7-3.4-0.8-7.2-0.2-11.2c0.6-4.1,2.2-8.5,4.7-13.2l3.1-6.3c-2.5,2.1-5.1,4.2-7.9,6c-2.3,1.7-4.9,3.2-7.8,4.6
			c-2.9,1.4-5.7,2.4-8.5,2.9c-1.7,0.2-3.4,0-4.9-0.6s-3-1.4-4.3-2.6c-0.6-0.6-1.3-1.3-2.1-2c-0.7-0.8-1.4-1.7-2-2.6
			c-0.6-0.8-0.8-1.7-0.7-2.7c-0.3,2.1-1.2,4-2.7,5.6c-1.5,1.5-3.3,2.8-5.4,3.7c-2.1,0.9-4.1,1.4-6.1,1.6c-2,0.2-4,0.2-6-0.2
			c-2-0.3-3.7-1.2-5.3-2.6c-1.2-1-1.9-2.2-2.4-3.5c-0.4-1.2-0.8-2.6-1.1-3.9c-0.3-1.3-0.7-2.7-1.3-4.1c0.1,0.3-0.4,0.6-1.2,1.2
			c-0.8,0.6-1.8,1.1-2.9,1.7c-1.2,0.6-2.3,1.2-3.3,1.6c-0.9,0.5-1.5,0.8-1.6,0.9c-1.5,0.5-3,1-4.7,1.5c-1.7,0.4-3.3,0.5-4.9,0.2
			c-1.6-0.2-2.9-1-4.1-2.3c-0.6-0.8-0.9-1.5-1.3-2.4c-0.3-0.8-0.5-1.6-0.8-2.5c-0.1-0.6-0.3-1.5-0.5-2.5c-0.2-1-0.5-2-0.7-3
			c-0.1-0.8-0.2-1.3-0.2-1.4c-0.1,0-0.4-0.1-1.3-0.4c-0.8-0.2-1.8-0.5-2.8-0.9c-1-0.5-1.9-0.9-2.6-1.5c-2.1-1.7-3.4-3.6-3.9-5.9
			c-0.7-2.2-0.7-4.5,0-6.8c0.6-2.4,1.6-4.5,3.1-6.5c1.4-1.9,3.1-3.6,5.1-4.9c-1.3,0.8-2.4,1-3.5,0.6c-1.2-0.3-2.3-1.1-3.3-2.1
			c-1-1.1-1.9-2.4-2.7-3.8s-1.4-2.7-2-4.1c-0.5-1.4-0.8-2.5-1-3.3c-0.7-2.8-0.7-5.3,0-7.7c0.6-2.4,1.7-4.5,3.5-6.2
			c1.8-1.8,4-3.1,6.5-4.1c0-0.1-0.2-0.4-0.7-1.1c-0.5-0.6-1.1-1.5-1.7-2.5c-0.7-1-1.3-2.1-2-3.1c-0.6-1.1-1-2-1.3-2.7
			c-0.5-1.4-0.8-2.8-1.1-4.3c-0.2-1.6-0.2-3.1,0.1-4.5c0.2-1.5,0.8-2.9,1.7-4.1c0.4-0.5,1.1-1.1,2.2-2c1.1-0.9,2.2-1.6,3.3-2.4
			c1.1-0.7,2-1.1,2.4-1.1c-1.8-0.2-3.5-1-5.1-2.4c-1.7-1.4-3.1-3.1-4.3-5.1c-1.3-2.1-2.3-4.3-3-6.6c-0.6-2.4-1-4.5-0.9-6.7
			c0.1-2.2,0.5-4,1.4-5.5c1.9-2.8,3.9-4.7,6.2-5.7c2.3-0.9,4.6-1.3,7.1-0.9c2.5,0.3,5,1,7.5,2.1s4.9,2.3,7.2,3.7
			c0-0.2,0.1-0.8,0.3-1.8c0.3-1.1,0.6-2.2,1.2-3.6c0.5-1.4,1.2-2.5,2.3-3.4c2.4-1.9,4.9-3.1,7.4-3.6s4.7-0.5,6.8,0
			c2.1,0.5,3.8,1.2,5.3,2.1c1.4,0.9,2.4,1.8,2.9,2.5c0-0.1,0.1-0.4,0.2-1c0.1-0.6,0.3-1.2,0.4-2c0.2-0.7,0.4-1.2,0.7-1.7
			c1-1.5,2.1-2.5,3.3-2.9c1.2-0.5,2.5-0.8,3.9-0.9c2.2-0.1,4.2,0.4,6.2,1.4c1.9,1.1,3.8,2.5,5.7,4.4c-0.2-0.4,0-0.8,0.6-1.4
			c0.7-0.5,1.5-1,2.5-1.5c1-0.6,2-1.1,2.8-1.5c1-0.5,1.5-0.7,1.9-0.8c2.2-0.5,4.1-0.7,5.8-0.6c1.7,0.2,3.2,0.6,4.5,1.4
			c1.4,0.6,2.8,1.5,4,2.4c0,0,0.3-0.3,0.8-0.8c0.7-0.4,1.5-0.9,2.5-1.4c1.1-0.5,2.3-0.7,3.7-0.8c1.9,0,3.7,0.4,5.3,1.3
			c1.7,1,3.3,2.2,4.7,3.6c1.5,1.4,2.8,2.8,4,4.2c-0.4-0.4-0.3-1,0.2-1.8c0.5-0.8,1.3-1.7,2.5-2.5c1.1-0.8,2.5-1.5,4.1-1.9
			c1.6-0.4,3.4-0.5,5.3-0.2c2.3,0.5,3.8,1.6,4.6,3.2c0.8,1.6,1.1,3.4,1,5.7c0.1,0,0.6-0.5,1.8-1.1c1.2-0.8,2.8-1.4,4.6-2.1
			c1.8-0.7,3.8-0.8,5.9-0.7c2.1,0.1,4,1.1,5.8,2.8c1.9,1.7,3.4,4.6,4.5,8.6C163.873,23.024,163.873,23.824,164.073,25.224z"/>
	</g>
</g>
</svg>
