<?xml version="1.0" encoding="utf-8"?>
<!-- Generator: Adobe Illustrator 13.0.1, SVG Export Plug-In . SVG Version: 6.00 Build 14948)  -->
<!DOCTYPE svg PUBLIC "-//W3C//DTD SVG 1.1//EN" "http://www.w3.org/Graphics/SVG/1.1/DTD/svg11.dtd">
<svg version="1.1" id="图层_1" xmlns="http://www.w3.org/2000/svg" xmlns:xlink="http://www.w3.org/1999/xlink" x="0px" y="0px"
	 width="200px" height="124.7px" viewBox="0 0 200 124.7" enable-background="new 0 0 200 124.7" xml:space="preserve">
	 
	 <rect id="bubblerect" stroke-width="0" x="30.458" y="10"  fill="none" stroke="#000000" width="130.666" height="50.667"/>
	 
<g>
	<g>
		<path fill="#FFFFFF" d="M189.8,25.7c-3.3-3.5-7.9-6.7-13.7-9.6c-5.9-2.8-12.9-5.3-20.9-7.4c-8-2.2-16.9-3.8-26.4-5
			C119.1,2.6,109,2,98.3,2C87.5,2,77.4,2.6,67.8,3.7c-9.6,1.2-18.4,2.8-26.4,5c-8,2.1-15,4.6-20.9,7.4c-5.9,2.9-10.4,6.1-13.7,9.6
			c-3.3,3.4-4.8,7-4.9,10.9c0.1,4.1,1.9,7.9,5.5,11.6c3.6,3.6,8.7,6.9,15.2,9.8c6.5,3,14.2,5.6,23,7.6c8.9,2.1,18.6,3.6,29.1,4.6
			c-2.7,1.6-4.7,3.4-6,5.3c-1.4,1.8-2.2,3.8-2.2,5.8c0.1,3.3,1.8,6.3,5.2,9.1c3.4,2.8,8.1,5.2,14.1,7.4c6,2.1,13,3.8,20.9,5
			c7.9,1.1,16.4,1.8,25.6,1.8c4.4,0,8.8-0.2,13-0.5l46,18.8l-20.1-22.8c5.5-1.5,10.1-3.2,14.1-5.1c4-1.9,7.1-4,9.4-6.3
			c2.1-2.4,3.2-4.8,3.3-7.4c-0.1-2.8-1.4-5.5-4.1-8c-2.6-2.6-6.4-4.8-11.2-6.9c-4.9-2-10.5-3.7-17-5.1c6-2.1,11.1-4.4,15.4-7
			c4.3-2.6,7.7-5.4,10-8.4c2.3-3,3.5-6,3.6-9.3C194.6,32.7,193,29.1,189.8,25.7z"/>
	</g>
	<g>
		<path d="M194.4,44.7c1.4-2.6,2.2-5.3,2.3-8.1c0-2.7-0.8-5.4-2.3-7.9c-1.4-2.5-3.4-4.9-6-7.1c-3.8-3.2-8.8-6.2-14.9-8.8
			c-6.1-2.7-13-4.9-20.8-6.8c-7.9-1.9-16.4-3.4-25.5-4.4c-9.1-1-18.7-1.5-28.9-1.6c-8.9,0-17.5,0.4-25.8,1.3c-8.2,0.8-16,2-23.2,3.5
			C42,6.4,35.5,8.1,29.6,10.3c-4.5,1.6-8.5,3.3-12.1,5.2c-3.6,1.9-6.6,4-9.2,6.1c-2.6,2.2-4.7,4.6-6.1,7.1c-1.4,2.5-2.1,5.2-2.2,7.9
			c0,2.3,0.6,4.6,1.6,6.8c1,2.1,2.6,4.2,4.4,6.1c3.7,3.7,8.6,6.9,14.8,9.9c6.2,2.9,13.4,5.4,21.7,7.4c8.2,2.1,17.3,3.8,27,4.9
			c-1.5,1.4-2.7,2.9-3.5,4.5c-0.9,1.6-1.3,3.3-1.3,5.1c0,2,0.5,3.9,1.6,5.7c1,1.7,2.4,3.4,4.2,4.9c3.7,2.9,8.5,5.5,14.7,7.7
			c6.1,2.2,13.2,3.9,21.3,5.1c8,1.2,16.6,1.8,25.8,1.9c4.4-0.1,8.6-0.3,12.8-0.5l45.6,18.6l2.2-3.1l-18.1-20.5c7-2,12.6-4.5,17-7.5
			c2.5-1.7,4.5-3.5,6-5.5c1.4-2.1,2.1-4.4,2.2-6.8c-0.1-2.6-1-5.1-2.7-7.3c-1.8-2.2-4.1-4.2-7.1-6c-4.8-2.8-10.7-5.2-17.9-7.1
			c6.5-2.7,11.8-5.7,15.9-9.1C190.8,49.6,192.9,47.2,194.4,44.7z M165.8,14c4.3,1.5,8.1,3.2,11.5,5c3.4,1.8,6.3,3.7,8.5,5.6
			c4.7,4,7,8,7,12c0,4.1-2.4,8.1-7.1,12.1c-2.4,2-5.4,4-8.8,5.7c-3.5,1.9-7.4,3.5-11.8,5.1l-6.7,2.3l6.9,1.5c4.8,1,9.1,2.2,13,3.5
			c3.8,1.4,7.1,2.9,9.8,4.5c2.7,1.7,4.7,3.4,6.1,5.1c1.3,1.7,2,3.3,1.9,4.9c0,1.5-0.5,2.9-1.5,4.5c-1.1,1.5-2.8,3-4.9,4.5
			c-2.3,1.6-4.9,3-8.1,4.3c-3.3,1.3-6.8,2.5-10.8,3.5l-3.1,0.8l16.7,19l-38.7-15.8h-0.5c-4.1,0.3-8.4,0.5-12.9,0.5
			c-6,0-11.7-0.3-17.2-0.8c-5.6-0.5-10.8-1.4-15.6-2.4c-4.7-1-9.1-2.1-13-3.5c-2.9-1-5.5-2.1-7.8-3.3c-2.2-1.2-4.2-2.4-5.7-3.7
			c-3-2.6-4.5-5.1-4.5-7.6c0-1.5,0.6-3,1.8-4.6c1.2-1.7,3-3.3,5.5-4.9l4.7-3.1l-5.7-0.5c-10.3-0.9-19.9-2.5-28.7-4.5
			c-8.7-2-16.2-4.5-22.7-7.5c-6.3-2.8-11.2-6-14.6-9.4C5.5,43.4,3.9,40,3.9,36.6c0-4,2.3-8,6.9-12c3.5-3,8.1-5.7,14-8.2
			c5.8-2.5,12.5-4.7,20.1-6.5c7.6-1.9,16-3.4,25-4.4C79,4.4,88.4,3.9,98.3,3.9c8.9,0.1,17.4,0.5,25.5,1.3c8.1,0.8,15.7,1.9,22.8,3.4
			S160.1,11.9,165.8,14z"/>
	</g>
</g>
</svg>
